<?xml version="1.0" encoding="utf-8"?>
<!-- Generator: Adobe Illustrator 24.1.1, SVG Export Plug-In . SVG Version: 6.00 Build 0)  -->
<svg version="1.1" id="Layer_1" xmlns="http://www.w3.org/2000/svg" xmlns:xlink="http://www.w3.org/1999/xlink" x="0px" y="0px"
	 viewBox="0 0 7410 3900" style="enable-background:new 0 0 7410 3900;" xml:space="preserve">
<style type="text/css">
	.st0{fill:#B22234;}
	.st1{fill:#FFFFFF;}
	.st2{fill:#3C3B6E;}
</style>
<rect class="st0" width="7410" height="3900"/>
<g>
	<path d="M0,450h7410 M7410,1050H0 M0,1650h7410 M7410,2250H0 M0,2850h7410 M7410,3450H0"/>
	<path class="st1" d="M7410,3600H0v-300h7410V3600z M7410,3000H0v-300h7410V3000z M7410,2400H0v-300h7410V2400z M7410,1800H0v-300
		h7410V1800z M7410,1200H0V900h7410V1200z M7410,600H0V300h7410V600z"/>
</g>
<rect class="st2" width="2964" height="2100"/>
<g>
	<g id="s18">
		<g id="s9">
			<g id="s5">
				<g id="s4">
					<path id="s" class="st1" d="M247,90l70.5,217.1L132.9,172.9h228.3L176.5,307.1L247,90z"/>
					<g>
						<path id="s_1_" class="st1" d="M247,510l70.5,217.1L132.9,592.9h228.3L176.5,727.1L247,510z"/>
					</g>
					<g>
						<path id="s_2_" class="st1" d="M247,930l70.5,217.1l-184.7-134.2h228.3l-184.7,134.2L247,930z"/>
					</g>
					<g>
						<path id="s_3_" class="st1" d="M247,1350l70.5,217.1l-184.7-134.2h228.3l-184.7,134.2L247,1350z"/>
					</g>
				</g>
				<g>
					<path id="s_4_" class="st1" d="M247,1770l70.5,217.1l-184.7-134.2h228.3l-184.7,134.2L247,1770z"/>
				</g>
			</g>
			<g>
				<g id="s4_1_">
					<path id="s_5_" class="st1" d="M494,300l70.5,217.1L379.9,382.9h228.3L423.5,517.1L494,300z"/>
					<g>
						<path id="s_6_" class="st1" d="M494,720l70.5,217.1L379.9,802.9h228.3L423.5,937.1L494,720z"/>
					</g>
					<g>
						<path id="s_7_" class="st1" d="M494,1140l70.5,217.1l-184.7-134.2h228.3l-184.7,134.2L494,1140z"/>
					</g>
					<g>
						<path id="s_8_" class="st1" d="M494,1560l70.5,217.1l-184.7-134.2h228.3l-184.7,134.2L494,1560z"/>
					</g>
				</g>
			</g>
		</g>
		<g>
			<g id="s9_1_">
				<g id="s5_1_">
					<g id="s4_2_">
						<path id="s_9_" class="st1" d="M741,90l70.5,217.1L626.9,172.9h228.3L670.5,307.1L741,90z"/>
						<g>
							<path id="s_10_" class="st1" d="M741,510l70.5,217.1L626.9,592.9h228.3L670.5,727.1L741,510z"/>
						</g>
						<g>
							<path id="s_11_" class="st1" d="M741,930l70.5,217.1l-184.7-134.2h228.3l-184.7,134.2L741,930z"/>
						</g>
						<g>
							<path id="s_12_" class="st1" d="M741,1350l70.5,217.1l-184.7-134.2h228.3l-184.7,134.2L741,1350z"/>
						</g>
					</g>
					<g>
						<path id="s_13_" class="st1" d="M741,1770l70.5,217.1l-184.7-134.2h228.3l-184.7,134.2L741,1770z"/>
					</g>
				</g>
				<g>
					<g id="s4_3_">
						<path id="s_14_" class="st1" d="M988,300l70.5,217.1L873.9,382.9h228.3L917.5,517.1L988,300z"/>
						<g>
							<path id="s_15_" class="st1" d="M988,720l70.5,217.1L873.9,802.9h228.3L917.5,937.1L988,720z"/>
						</g>
						<g>
							<path id="s_16_" class="st1" d="M988,1140l70.5,217.1l-184.7-134.2h228.3l-184.7,134.2L988,1140z"/>
						</g>
						<g>
							<path id="s_17_" class="st1" d="M988,1560l70.5,217.1l-184.7-134.2h228.3l-184.7,134.2L988,1560z"/>
						</g>
					</g>
				</g>
			</g>
		</g>
	</g>
	<g>
		<g id="s18_1_">
			<g id="s9_2_">
				<g id="s5_2_">
					<g id="s4_4_">
						<path id="s_18_" class="st1" d="M1235,90l70.5,217.1l-184.7-134.2h228.3l-184.7,134.2L1235,90z"/>
						<g>
							<path id="s_19_" class="st1" d="M1235,510l70.5,217.1l-184.7-134.2h228.3l-184.7,134.2L1235,510z"/>
						</g>
						<g>
							<path id="s_20_" class="st1" d="M1235,930l70.5,217.1l-184.7-134.2h228.3l-184.7,134.2L1235,930z"/>
						</g>
						<g>
							<path id="s_21_" class="st1" d="M1235,1350l70.5,217.1l-184.7-134.2h228.3l-184.7,134.2L1235,1350z"/>
						</g>
					</g>
					<g>
						<path id="s_22_" class="st1" d="M1235,1770l70.5,217.1l-184.7-134.2h228.3l-184.7,134.2L1235,1770z"/>
					</g>
				</g>
				<g>
					<g id="s4_5_">
						<path id="s_23_" class="st1" d="M1482,300l70.5,217.1l-184.7-134.2h228.3l-184.7,134.2L1482,300z"/>
						<g>
							<path id="s_24_" class="st1" d="M1482,720l70.5,217.1l-184.7-134.2h228.3l-184.7,134.2L1482,720z"/>
						</g>
						<g>
							<path id="s_25_" class="st1" d="M1482,1140l70.5,217.1l-184.7-134.2h228.3l-184.7,134.2L1482,1140z"/>
						</g>
						<g>
							<path id="s_26_" class="st1" d="M1482,1560l70.5,217.1l-184.7-134.2h228.3l-184.7,134.2L1482,1560z"/>
						</g>
					</g>
				</g>
			</g>
			<g>
				<g id="s9_3_">
					<g id="s5_3_">
						<g id="s4_6_">
							<path id="s_27_" class="st1" d="M1729,90l70.5,217.1l-184.7-134.2h228.3l-184.7,134.2L1729,90z"/>
							<g>
								<path id="s_28_" class="st1" d="M1729,510l70.5,217.1l-184.7-134.2h228.3l-184.7,134.2L1729,510z"/>
							</g>
							<g>
								<path id="s_29_" class="st1" d="M1729,930l70.5,217.1l-184.7-134.2h228.3l-184.7,134.2L1729,930z"/>
							</g>
							<g>
								<path id="s_30_" class="st1" d="M1729,1350l70.5,217.1l-184.7-134.2h228.3l-184.7,134.2L1729,1350z"/>
							</g>
						</g>
						<g>
							<path id="s_31_" class="st1" d="M1729,1770l70.5,217.1l-184.7-134.2h228.3l-184.7,134.2L1729,1770z"/>
						</g>
					</g>
					<g>
						<g id="s4_7_">
							<path id="s_32_" class="st1" d="M1976,300l70.5,217.1l-184.7-134.2h228.3l-184.7,134.2L1976,300z"/>
							<g>
								<path id="s_33_" class="st1" d="M1976,720l70.5,217.1l-184.7-134.2h228.3l-184.7,134.2L1976,720z"/>
							</g>
							<g>
								<path id="s_34_" class="st1" d="M1976,1140l70.5,217.1l-184.7-134.2h228.3l-184.7,134.2L1976,1140z"/>
							</g>
							<g>
								<path id="s_35_" class="st1" d="M1976,1560l70.5,217.1l-184.7-134.2h228.3l-184.7,134.2L1976,1560z"/>
							</g>
						</g>
					</g>
				</g>
			</g>
		</g>
	</g>
	<g>
		<g id="s9_4_">
			<g id="s5_4_">
				<g id="s4_8_">
					<path id="s_36_" class="st1" d="M2223,90l70.5,217.1l-184.7-134.2h228.3l-184.7,134.2L2223,90z"/>
					<g>
						<path id="s_37_" class="st1" d="M2223,510l70.5,217.1l-184.7-134.2h228.3l-184.7,134.2L2223,510z"/>
					</g>
					<g>
						<path id="s_38_" class="st1" d="M2223,930l70.5,217.1l-184.7-134.2h228.3l-184.7,134.2L2223,930z"/>
					</g>
					<g>
						<path id="s_39_" class="st1" d="M2223,1350l70.5,217.1l-184.7-134.2h228.3l-184.7,134.2L2223,1350z"/>
					</g>
				</g>
				<g>
					<path id="s_40_" class="st1" d="M2223,1770l70.5,217.1l-184.7-134.2h228.3l-184.7,134.2L2223,1770z"/>
				</g>
			</g>
			<g>
				<g id="s4_9_">
					<path id="s_41_" class="st1" d="M2470,300l70.5,217.1l-184.7-134.2h228.3l-184.7,134.2L2470,300z"/>
					<g>
						<path id="s_42_" class="st1" d="M2470,720l70.5,217.1l-184.7-134.2h228.3l-184.7,134.2L2470,720z"/>
					</g>
					<g>
						<path id="s_43_" class="st1" d="M2470,1140l70.5,217.1l-184.7-134.2h228.3l-184.7,134.2L2470,1140z"/>
					</g>
					<g>
						<path id="s_44_" class="st1" d="M2470,1560l70.5,217.1l-184.7-134.2h228.3l-184.7,134.2L2470,1560z"/>
					</g>
				</g>
			</g>
		</g>
	</g>
	<g>
		<g id="s5_5_">
			<g id="s4_10_">
				<path id="s_45_" class="st1" d="M2717,90l70.5,217.1l-184.7-134.2h228.3l-184.7,134.2L2717,90z"/>
				<g>
					<path id="s_46_" class="st1" d="M2717,510l70.5,217.1l-184.7-134.2h228.3l-184.7,134.2L2717,510z"/>
				</g>
				<g>
					<path id="s_47_" class="st1" d="M2717,930l70.5,217.1l-184.7-134.2h228.3l-184.7,134.2L2717,930z"/>
				</g>
				<g>
					<path id="s_48_" class="st1" d="M2717,1350l70.5,217.1l-184.7-134.2h228.3l-184.7,134.2L2717,1350z"/>
				</g>
			</g>
			<g>
				<path id="s_49_" class="st1" d="M2717,1770l70.5,217.1l-184.7-134.2h228.3l-184.7,134.2L2717,1770z"/>
			</g>
		</g>
	</g>
</g>
</svg>
