<?xml version="1.0" encoding="utf-8"?>
<!-- Generator: Adobe Illustrator 24.3.0, SVG Export Plug-In . SVG Version: 6.00 Build 0)  -->
<svg version="1.1" id="Layer_1" xmlns="http://www.w3.org/2000/svg" xmlns:xlink="http://www.w3.org/1999/xlink" x="0px" y="0px"
	 viewBox="0 0 500 500" style="enable-background:new 0 0 500 500;" xml:space="preserve">
<style type="text/css">
	.st0{fill:none;stroke:#0046BB;stroke-linecap:round;stroke-linejoin:round;}
	.st1{fill:#0046BB;}
	.st2{fill:#263238;stroke:#263238;stroke-linecap:round;stroke-linejoin:round;}
	.st3{fill:#FFFFFF;stroke:#263238;stroke-linecap:round;stroke-linejoin:round;}
	.st4{fill:#575757;stroke:#263238;stroke-linecap:round;stroke-linejoin:round;}
	.st5{fill:#FFFFFF;}
	.st6{fill:none;stroke:#FFFFFF;stroke-width:2;stroke-linecap:round;stroke-miterlimit:10;}
	.st7{fill:none;stroke:#FFFFFF;stroke-linecap:round;stroke-linejoin:round;}
	.st8{fill:none;stroke:#FFFFFF;stroke-width:0.8211;stroke-linecap:round;stroke-linejoin:round;}
	.st9{fill:#FFFFFF;stroke:#FFFFFF;stroke-width:0.7251;stroke-linecap:round;stroke-linejoin:round;}
	.st10{fill:#FFFFFF;stroke:#FFFFFF;stroke-width:0.8831;stroke-linecap:round;stroke-linejoin:round;}
	.st11{fill:#949494;}
	.st12{fill:none;stroke:#FFFFFF;stroke-width:2;stroke-miterlimit:10;}
	.st13{fill:none;stroke:#FFFFFF;stroke-linecap:round;stroke-miterlimit:10;}
	.st14{fill:#0046BB;stroke:#263238;stroke-linecap:round;stroke-linejoin:round;}
	.st15{fill:none;stroke:#263238;stroke-linecap:round;stroke-linejoin:round;}
	.st16{fill:#263238;}
	.st17{fill:none;stroke:#263238;stroke-miterlimit:10;}
</style>
<g id="freepik--Plant--inject-2">
	<line class="st0" x1="434" y1="380" x2="434" y2="258"/>
	<path class="st1" d="M433.1,369c0,0-6.4-9.2-14.7-13.8s-22-4.6-22-4.6S403.8,377.2,433.1,369z"/>
	<path class="st1" d="M434,369c0,0,6.4-9.2,14.7-13.8s22-4.6,22-4.6S463.4,377.2,434,369z"/>
	<path class="st1" d="M433.1,336c0,0-6.4-9.2-14.7-13.8s-22-4.6-22-4.6S403.8,344.2,433.1,336z"/>
	<path class="st1" d="M434,336c0,0,6.4-9.2,14.7-13.8s22-4.6,22-4.6S463.4,344.2,434,336z"/>
	<path class="st1" d="M433.1,303c0,0-6.4-9.2-14.7-13.8s-22-4.6-22-4.6S403.8,311.2,433.1,303z"/>
	<path class="st1" d="M434,303c0,0,6.4-9.2,14.7-13.8s22-4.6,22-4.6S463.4,311.2,434,303z"/>
	<path class="st1" d="M433.1,270c0,0-6.4-9.2-14.7-13.8s-22-4.6-22-4.6S403.8,278.2,433.1,270z"/>
	<path class="st1" d="M434,270c0,0,6.4-9.2,14.7-13.8s22-4.6,22-4.6S463.4,278.2,434,270z"/>
	<path class="st1" d="M434,258c0,0-7.3-9.9-7.7-19.3s5.8-21.7,5.8-21.7S454.6,235.6,434,258z"/>
	<polygon class="st2" points="415.7,377.7 451.2,377.7 442.3,475 424.6,475 	"/>
</g>
<g id="freepik--Device--inject-2">
	<path class="st2" d="M392.1,166.2c0.8,0,1.4-0.6,1.4-1.4c0,0,0,0,0,0V126c0-0.8-0.7-1.4-1.5-1.4h-3.8v-74
		c0-10.3-8.3-18.6-18.6-18.6l0,0H188.1c-10.3,0-18.6,8.3-18.6,18.6v382c0,10.3,8.3,18.6,18.6,18.6h181.7c10.3,0,18.6-8.3,18.6-18.6
		V199.5h3.8c0.8,0,1.4-0.6,1.5-1.4v-17.2c0-0.8-0.7-1.4-1.5-1.4h-3.8v-13.2H392.1z M382.1,418.1c-0.1,7.4-6.2,13.4-13.6,13.3
		c0,0,0,0,0,0H189.4c-7.4,0.1-13.5-5.8-13.6-13.3c0,0,0,0,0,0V54.5c0.1-7.4,6.2-13.4,13.6-13.3c0,0,0,0,0,0H260l2.9,5.5
		c4.9,8.8,16.1,12,24.9,7.1c3-1.7,5.4-4.1,7.1-7.1l2.9-5.5h70.6c7.4-0.1,13.5,5.9,13.6,13.3c0,0,0,0,0,0L382.1,418.1z"/>
	<path class="st3" d="M283.8,43.3c0-2.7-2.2-4.9-4.8-4.9c-2.7,0-4.9,2.2-4.9,4.8s2.2,4.9,4.8,4.9c0,0,0,0,0,0
		C281.6,48.2,283.8,46,283.8,43.3C283.8,43.3,283.8,43.3,283.8,43.3z"/>
	<path class="st4" d="M368.5,41.2h-70.6l-2.9,5.5c-4.9,8.8-16.1,12-24.9,7.1c-3-1.7-5.4-4.1-7.1-7.1l-2.9-5.5h-70.6
		c-7.4-0.1-13.5,5.8-13.6,13.3c0,0,0,0,0,0v363.5c0.1,7.4,6.2,13.4,13.6,13.3c0,0,0,0,0,0h179.1c7.4,0.1,13.5-5.8,13.6-13.3
		c0,0,0,0,0,0V54.5C382,47.1,375.9,41.1,368.5,41.2C368.5,41.2,368.5,41.2,368.5,41.2z"/>
	<path class="st5" d="M216.2,376.6c0,0.6-0.5,1.1-1.1,1.1s-1.1-0.5-1.1-1.1c0-0.6,0.5-1.1,1.1-1.1
		C215.7,375.5,216.2,376,216.2,376.6C216.2,376.6,216.2,376.6,216.2,376.6z"/>
	<path class="st5" d="M220.1,376.6c0,0.6-0.5,1.1-1.1,1.1s-1.1-0.5-1.1-1.1c0-0.6,0.5-1.1,1.1-1.1
		C219.6,375.5,220.1,376,220.1,376.6C220.1,376.6,220.1,376.6,220.1,376.6z"/>
	<path class="st5" d="M223.8,376.6c0,0.6-0.5,1.1-1.1,1.1s-1.1-0.5-1.1-1.1c0-0.6,0.5-1.1,1.1-1.1h0
		C223.3,375.5,223.7,376,223.8,376.6z"/>
	<path class="st5" d="M216.2,380.4c0,0.6-0.5,1.1-1.1,1.1s-1.1-0.5-1.1-1.1c0-0.6,0.5-1.1,1.1-1.1
		C215.7,379.2,216.2,379.7,216.2,380.4C216.2,380.3,216.2,380.3,216.2,380.4z"/>
	<path class="st5" d="M220.1,380.4c0,0.6-0.5,1.1-1.1,1.1s-1.1-0.5-1.1-1.1c0-0.6,0.5-1.1,1.1-1.1
		C219.6,379.2,220.1,379.7,220.1,380.4C220.1,380.3,220.1,380.3,220.1,380.4z"/>
	<path class="st5" d="M223.8,380.4c0,0.6-0.5,1.1-1.1,1.1s-1.1-0.5-1.1-1.1c0-0.6,0.5-1.1,1.1-1.1h0
		C223.3,379.2,223.7,379.7,223.8,380.4z"/>
	<path class="st5" d="M216.2,384.1c0,0.6-0.5,1.1-1.1,1.1s-1.1-0.5-1.1-1.1c0-0.6,0.5-1.1,1.1-1.1
		C215.7,382.9,216.2,383.4,216.2,384.1C216.2,384.1,216.2,384.1,216.2,384.1z"/>
	<path class="st5" d="M220.1,384.1c0,0.6-0.5,1.1-1.1,1.1s-1.1-0.5-1.1-1.1c0-0.6,0.5-1.1,1.1-1.1c0,0,0.1,0,0.1,0
		C219.6,383,220,383.5,220.1,384.1z"/>
	<path class="st5" d="M223.8,384.1c0,0.6-0.5,1.1-1.1,1.1s-1.1-0.5-1.1-1.1c0-0.6,0.5-1.1,1.1-1.1h0
		C223.3,383,223.7,383.4,223.8,384.1z"/>
	<path class="st5" d="M220.1,387.8c0,0.6-0.5,1.1-1.1,1.1c-0.6,0-1.1-0.5-1.1-1.1s0.5-1.1,1.1-1.1
		C219.6,386.7,220,387.2,220.1,387.8z"/>
	<path class="st6" d="M339.3,376.7l-6.5,3.7h-4.4c-0.3,0-0.6,0.3-0.6,0.6v3.7c0,0.3,0.3,0.6,0.6,0.6h4.4l6.4,3.7V376.7z"/>
	<path class="st5" d="M345.2,382.9c0,1.7-0.7,3.4-1.9,4.6l1,1.1c3.2-3.1,3.2-8.2,0.1-11.3c-0.1-0.1-0.3-0.2-0.4-0.4l-1.1,1
		C344.3,379.1,345.2,380.9,345.2,382.9z"/>
	<path class="st5" d="M341.8,382.9c0,0.8-0.3,1.6-0.9,2.1l1,1.1c1.8-1.8,1.7-4.8-0.1-6.5c-0.1-0.1-0.2-0.2-0.4-0.3l-1.1,1
		C341.2,380.8,341.8,381.8,341.8,382.9z"/>
	<polygon class="st7" points="236.7,419.2 243.7,423.3 243.7,415.2 	"/>
	<path class="st7" d="M281,419.2c0-2.1-1.7-3.7-3.7-3.7c-2.1,0-3.7,1.7-3.7,3.7c0,2.1,1.7,3.7,3.7,3.7c0,0,0,0,0,0
		C279.3,423,281,421.3,281,419.2z"/>
	<rect x="310.3" y="415.2" class="st7" width="8.1" height="8.1"/>
	<rect x="353.7" y="46.5" class="st8" width="14.2" height="7.8"/>
	<rect x="353.7" y="46.5" class="st9" width="11.1" height="7.8"/>
	<rect x="367.9" y="48.6" class="st9" width="2" height="3.4"/>
	<rect x="187.5" y="48.9" class="st10" width="2.6" height="4.5"/>
	<rect x="191.6" y="47.3" class="st10" width="2.6" height="6"/>
	<rect x="195.7" y="45.4" class="st10" width="2.6" height="7.9"/>
	<line class="st7" x1="182" y1="60.4" x2="375.8" y2="60.4"/>
	<path class="st5" d="M344.1,54.1c0-0.5-0.4-0.9-0.9-0.9c-0.5,0-0.9,0.4-0.9,0.9c0,0.5,0.4,0.9,0.9,0.9S344.1,54.6,344.1,54.1
		L344.1,54.1z"/>
	<path class="st5" d="M338.2,49.4c2.6-2.8,6.9-2.9,9.7-0.3c0,0,0,0,0,0l0.5-0.5c-3-2.9-7.8-2.8-10.7,0.2c0,0,0,0-0.1,0.1L338.2,49.4
		z"/>
	<path class="st5" d="M339.2,50.3l0.5,0.5c1.8-1.9,4.8-2,6.7-0.2c0,0,0,0,0.1,0.1l0.5-0.5C344.8,48,341.4,48.1,339.2,50.3
		C339.2,50.3,339.2,50.3,339.2,50.3L339.2,50.3z"/>
	<path class="st5" d="M340.9,51.9l0.5,0.5c0.5-0.5,1.1-0.8,1.8-0.8c0.6,0,1.2,0.2,1.7,0.7l0.5-0.5c-0.6-0.6-1.4-0.9-2.2-0.9
		C342.3,50.9,341.5,51.3,340.9,51.9z"/>
	<circle class="st11" cx="278.9" cy="128.3" r="30.9"/>
	<path class="st5" d="M253.4,145.7c9.7,14,28.9,17.6,42.9,7.9c3.1-2.1,5.7-4.7,7.8-7.8c-3.8-1.4-18.8-7-18.8-8.1
		c0-1.2,2.1-4.7,3.6-7.8c0.4-1,0.7-2.1,0.9-3.1l1.8-1.9c1.8-1.9,0.9-4.7,0.6-5.9s-2.3-0.2-2.6,0c-0.1-3-0.5-6-1.2-9
		c-1-3.3-7-4.8-8.4-4.9l0,0h-2.7l0,0c-1.4,0.1-7.3,1.6-8.4,4.9c-0.7,3-1.1,6-1.2,9c-0.3-0.2-2.4-1.1-2.6,0s-1.2,4.1,0.6,5.9l1.8,1.9
		c0.2,1.1,0.5,2.1,0.9,3.1c1.5,3.1,3.6,6.6,3.6,7.8C271.9,138.8,257.7,144.1,253.4,145.7z"/>
	<path class="st5" d="M255.2,182.5c0.3,0,0.7,0,1.1,0c1.7-0.1,2.5-1,2.5-3.2v-13.6h1.2v13.5c0,3.1-1.4,4.3-3.6,4.4
		c-0.4,0-0.8,0-1.2,0L255.2,182.5z"/>
	<path class="st5" d="M263.7,179.6l-0.9,4h-1.1l3.9-17.9h1.7l4,17.9h-1.2l-0.9-4H263.7z M263.9,178.6h5.2l-2.6-11.6L263.9,178.6z"/>
	<path class="st5" d="M279.1,183.6H278l-3.8-15.8v15.8h-1v-17.9h1.7l3.8,15.8l3.7-15.8h1.7v17.9h-1.1v-15.9L279.1,183.6z"/>
	<path class="st5" d="M292.1,174v1.1h-4.9v7.5h5.9v1.1H286v-17.9h7.1v1.1h-5.9v7.2H292.1z"/>
	<path class="st5" d="M302.5,170v0.4h-1.1v-0.5c0-1.9-0.7-3.3-2.6-3.3s-2.7,1.4-2.7,3.3c0,4.4,6.5,4.4,6.5,9.4
		c0,2.6-1.1,4.5-3.9,4.5s-3.9-1.9-3.9-4.5v-0.9h1.2v1c0,1.9,0.7,3.3,2.7,3.3s2.7-1.4,2.7-3.3c0-4.3-6.5-4.4-6.5-9.4
		c0-2.7,1.2-4.4,3.8-4.4S302.5,167.4,302.5,170z"/>
	<path class="st5" d="M266.1,203.2c0-1.7,0.8-2.9,2.5-2.9s2.5,1.2,2.5,2.9v5.9c0,1.7-0.8,2.9-2.5,2.9s-2.5-1.2-2.5-2.9V203.2z
		 M266.8,209.1c0,1.3,0.5,2.2,1.8,2.2s1.8-0.9,1.8-2.2v-5.9c0-1.2-0.5-2.2-1.8-2.2s-1.8,0.9-1.8,2.2V209.1z"/>
	<path class="st5" d="M272.3,203.2c0-1.7,0.8-2.9,2.5-2.9s2.5,1.2,2.5,2.9v5.9c0,1.7-0.8,2.9-2.5,2.9s-2.5-1.2-2.5-2.9V203.2z
		 M273.1,209.1c0,1.3,0.5,2.2,1.8,2.2s1.8-0.9,1.8-2.2v-5.9c0-1.2-0.5-2.2-1.8-2.2s-1.8,0.9-1.8,2.2V209.1z"/>
	<path class="st5" d="M279.4,210.5v1.4h-0.7v-1.4H279.4z"/>
	<path class="st5" d="M285.7,203.2c0,3.3-4.2,4.5-4.2,7.9v0.1h4.1v0.7h-4.9v-0.6c0-4,4.2-4.9,4.2-8.1c0-1.3-0.4-2.3-1.8-2.3
		s-1.7,1-1.7,2.2v0.8h-0.7v-0.7c0-1.6,0.7-3,2.5-3S285.7,201.6,285.7,203.2z"/>
	<path class="st5" d="M287.7,205.2c0.4-0.6,1.1-1,1.9-0.9c1.6,0,2.2,1.2,2.2,2.8v2c0,1.7-0.7,2.9-2.5,2.9s-2.5-1.2-2.5-2.9v-0.6h0.7
		v0.6c0,1.2,0.5,2.2,1.7,2.2s1.8-0.9,1.8-2.2v-2c0-1.2-0.5-2.2-1.8-2.2c-0.8,0-1.5,0.5-1.6,1.3v0.2H287l0.3-6.1h4.3v0.7H288
		L287.7,205.2z"/>
	<path class="st12" d="M210.8,246.4H230c1.1,0,2,0.9,2,2v17.9c0,1.1-0.9,2-2,2h-19.2c-1.1,0-2-0.9-2-2v-17.9
		C208.8,247.3,209.7,246.4,210.8,246.4z"/>
	<line class="st12" x1="209.4" y1="253.5" x2="232" y2="253.5"/>
	<rect x="223.6" y="260.6" class="st5" width="5.1" height="5.1"/>
	<line class="st6" x1="215.1" y1="246.2" x2="215.1" y2="243.5"/>
	<line class="st6" x1="225.9" y1="246.2" x2="225.9" y2="243.5"/>
	<path class="st6" d="M210,304.9h20.3c0.9,0,1.6,0.7,1.6,1.5v25.1c0,0.9-0.7,1.5-1.6,1.5H210c-0.9,0-1.6-0.7-1.6-1.5v-25.1
		C208.5,305.6,209.2,304.9,210,304.9z"/>
	<line class="st6" x1="212.7" y1="311.2" x2="227.7" y2="311.2"/>
	<line class="st6" x1="212.7" y1="317.2" x2="227.7" y2="317.2"/>
	<line class="st6" x1="212.7" y1="323.2" x2="221.7" y2="323.2"/>
	<path class="st13" d="M284.3,318.8v1c0,2.8-2.3,5.2-5.1,5.2c0,0,0,0,0,0l0,0c-2.9,0-5.2-2.3-5.2-5.2v0v-1"/>
	<path class="st13" d="M279.1,322.1L279.1,322.1c-1.3,0-2.4-1.1-2.4-2.4v-6c0-1.3,1.1-2.4,2.4-2.4l0,0c1.3,0,2.4,1.1,2.4,2.4v6
		C281.5,321,280.4,322.1,279.1,322.1z"/>
	<line class="st13" x1="279.1" y1="325" x2="279.1" y2="328.7"/>
	<path class="st6" d="M337.6,316.1c0,1.8-1.5,3.3-3.3,3.3s-3.3-1.5-3.3-3.3s1.5-3.3,3.3-3.3c0,0,0,0,0,0
		C336.2,312.8,337.6,314.2,337.6,316.1C337.6,316,337.6,316.1,337.6,316.1z"/>
	<path class="st6" d="M330.9,321.9h7c2.7,0,4.9,2.2,4.9,4.9v2.2l0,0H326l0,0v-2.2C326,324.1,328.2,321.9,330.9,321.9z"/>
	<line class="st13" x1="275.4" y1="247.9" x2="275.4" y2="266.4"/>
	<line class="st13" x1="282" y1="247.9" x2="282" y2="266.4"/>
	<line class="st13" x1="334.3" y1="247.9" x2="334.3" y2="266.4"/>
	<line class="st13" x1="343.6" y1="257.2" x2="325" y2="257.2"/>
	<path class="st5" d="M208.9,277.7v0.6h-0.4v-0.6c0-0.7-0.3-1.3-1-1.3s-1,0.5-1,1.3v3.5c0,0.7,0.3,1.3,1,1.3s1-0.5,1-1.3v-0.8h0.4
		v0.8c0,1-0.4,1.7-1.5,1.7s-1.5-0.7-1.5-1.7v-3.5c0-1,0.4-1.7,1.5-1.7S208.9,276.7,208.9,277.7z"/>
	<path class="st5" d="M210.2,281.3l-0.3,1.5h-0.4l1.5-6.8h0.6l1.5,6.8h-0.4l-0.3-1.5H210.2z M210.3,280.9h2l-1-4.4L210.3,280.9z"/>
	<path class="st5" d="M213.8,282.8V276h0.4v6.4h2.1v0.4L213.8,282.8z"/>
	<path class="st5" d="M219.3,279.1v0.4h-1.8v2.8h2.2v0.4h-2.7V276h2.7v0.4h-2.2v2.7L219.3,279.1z"/>
	<path class="st5" d="M220.8,282.8h-0.4V276h0.6l2,5.7V276h0.4v6.8H223l-2.1-6L220.8,282.8z"/>
	<path class="st5" d="M225.7,276c1,0,1.5,0.7,1.5,1.7v3.4c0,1-0.4,1.7-1.5,1.7h-1.5V276H225.7z M225.7,282.4c0.8,0,1.1-0.5,1.1-1.2
		v-3.4c0-0.7-0.3-1.2-1.1-1.2h-1v5.9H225.7z"/>
	<path class="st5" d="M228.6,281.3l-0.3,1.5h-0.4l1.5-6.8h0.7l1.5,6.8H231l-0.3-1.5H228.6z M228.6,280.9h2l-1-4.4L228.6,280.9z"/>
	<path class="st5" d="M233.5,276c1,0,1.4,0.6,1.4,1.5v0.6c-0.8,0.3-1.2,1.1-0.9,1.9c0.1,0.4,0.5,0.7,0.9,0.9v1.1
		c0,0.3,0,0.6,0.2,0.8h-0.5c-0.1-0.3-0.2-0.5-0.1-0.8v-1.1c0-0.9-0.5-1.1-1.3-1.1h-0.7v3h-0.4V276H233.5z M233.3,279.3
		c0.8,0,1.2-0.2,1.2-1.1v-0.6c0-0.7-0.3-1.1-1-1.1h-1v2.9H233.3z"/>
	<path class="st5" d="M272.8,279.6v3.2h-0.5V276h0.5v3.2h2.1V276h0.5v6.8h-0.5v-3.2L272.8,279.6z"/>
	<path class="st5" d="M276.1,277.7c0-1,0.5-1.7,1.5-1.7s1.5,0.7,1.5,1.7v3.5c0,1-0.5,1.7-1.5,1.7s-1.5-0.7-1.5-1.7V277.7z
		 M276.6,281.1c0,0.7,0.3,1.3,1,1.3s1-0.5,1-1.3v-3.5c0-0.7-0.3-1.3-1-1.3s-1,0.5-1,1.3V281.1z"/>
	<path class="st5" d="M279.8,282.8V276h0.4v6.4h2.1v0.4L279.8,282.8z"/>
	<path class="st5" d="M284.6,276c1,0,1.5,0.7,1.5,1.7v3.4c0,1-0.5,1.7-1.5,1.7h-1.5V276H284.6z M284.6,282.4c0.8,0,1.1-0.5,1.1-1.2
		v-3.4c0-0.7-0.3-1.2-1.1-1.2h-1v5.9H284.6z"/>
	<path class="st5" d="M321.3,281.3l-0.3,1.5h-0.4l1.5-6.8h0.6l1.5,6.8h-0.4l-0.3-1.5H321.3z M321.4,280.9h2l-1-4.4L321.4,280.9z"/>
	<path class="st5" d="M326.4,276c1,0,1.5,0.7,1.5,1.7v3.4c0,1-0.5,1.7-1.5,1.7h-1.5V276H326.4z M326.4,282.4c0.8,0,1.1-0.5,1.1-1.2
		v-3.4c0-0.7-0.3-1.2-1.1-1.2h-1v5.9H326.4z"/>
	<path class="st5" d="M330.1,276c1,0,1.5,0.7,1.5,1.7v3.4c0,1-0.5,1.7-1.5,1.7h-1.5V276H330.1z M330.1,282.4c0.8,0,1.1-0.5,1.1-1.2
		v-3.4c0-0.7-0.3-1.2-1.1-1.2h-1v5.9H330.1z"/>
	<path class="st5" d="M336.7,277.7v0.6h-0.4v-0.6c0-0.7-0.3-1.3-1-1.3s-1,0.5-1,1.3v3.5c0,0.7,0.3,1.3,1,1.3s1-0.5,1-1.3v-0.8h0.4
		v0.8c0,1-0.4,1.7-1.5,1.7s-1.5-0.7-1.5-1.7v-3.5c0-1,0.4-1.7,1.5-1.7S336.7,276.7,336.7,277.7z"/>
	<path class="st5" d="M338.1,281.3l-0.3,1.5h-0.4l1.5-6.8h0.6l1.5,6.8h-0.5l-0.3-1.5H338.1z M338.1,280.9h2l-1-4.4L338.1,280.9z"/>
	<path class="st5" d="M341.6,282.8V276h0.4v6.4h2.1v0.4L341.6,282.8z"/>
	<path class="st5" d="M344.9,282.8V276h0.4v6.4h2.1v0.4L344.9,282.8z"/>
	<path class="st5" d="M322.7,339v0.6h-0.4V339c0-0.7-0.3-1.3-1-1.3s-1,0.5-1,1.3v3.5c0,0.7,0.3,1.3,1,1.3s1-0.5,1-1.3v-0.8h0.4v0.8
		c0,1-0.4,1.7-1.5,1.7s-1.5-0.7-1.5-1.7V339c0-1,0.4-1.7,1.5-1.7S322.7,338,322.7,339z"/>
	<path class="st5" d="M323.4,339c0-1,0.5-1.7,1.5-1.7s1.5,0.7,1.5,1.7v3.5c0,1-0.5,1.7-1.5,1.7s-1.5-0.7-1.5-1.7V339z M323.9,342.5
		c0,0.7,0.3,1.3,1,1.3s1-0.5,1-1.3V339c0-0.7-0.3-1.3-1-1.3s-1,0.5-1,1.3V342.5z"/>
	<path class="st5" d="M327.5,344.1h-0.4v-6.8h0.6l2,5.7v-5.7h0.4v6.8h-0.5l-2.1-6L327.5,344.1z"/>
	<path class="st5" d="M332,344.1v-6.4h-1.4v-0.4h3.2v0.4h-1.4v6.4H332z"/>
	<path class="st5" d="M334.7,342.6l-0.3,1.5H334l1.5-6.8h0.6l1.5,6.8h-0.5l-0.3-1.5H334.7z M334.8,342.2h2l-1-4.4L334.8,342.2z"/>
	<path class="st5" d="M341.1,339v0.6h-0.4V339c0-0.7-0.3-1.3-1-1.3s-1,0.5-1,1.3v3.5c0,0.7,0.3,1.3,1,1.3s1-0.5,1-1.3v-0.8h0.4v0.8
		c0,1-0.4,1.7-1.5,1.7s-1.5-0.7-1.5-1.7V339c0-1,0.4-1.7,1.5-1.7S341.1,338,341.1,339z"/>
	<path class="st5" d="M343,344.1v-6.4h-1.4v-0.4h3.2v0.4h-1.4v6.4H343z"/>
	<path class="st5" d="M348.2,339v0.1h-0.4V339c0-0.7-0.3-1.2-1-1.2s-1,0.5-1,1.2c0,1.6,2.4,1.7,2.4,3.5c0,1-0.4,1.7-1.5,1.7
		s-1.5-0.7-1.5-1.7v-0.3h0.4v0.4c0,0.7,0.3,1.2,1,1.2s1-0.5,1-1.2c0-1.6-2.5-1.6-2.5-3.5c0-1,0.5-1.7,1.4-1.7S348.2,338,348.2,339z"
		/>
	<path class="st5" d="M274.1,344.1h-0.4l-1.4-6v6h-0.4v-6.8h0.6l1.4,6l1.4-6h0.6v6.8h-0.4v-6L274.1,344.1z"/>
	<path class="st5" d="M277.2,342.5c0,0.7,0.3,1.3,1,1.3s1-0.6,1-1.3v-5.1h0.4v5.1c0,1-0.4,1.7-1.4,1.7s-1.5-0.7-1.5-1.7v-5.1h0.4
		L277.2,342.5z"/>
	<path class="st5" d="M281.5,344.1v-6.4h-1.4v-0.4h3.2v0.4H282v6.4H281.5z"/>
	<path class="st5" d="M286.2,340.5v0.4h-1.8v2.8h2.2v0.4h-2.7v-6.8h2.7v0.4h-2.2v2.7H286.2z"/>
	<path class="st5" d="M207,344.1h-0.4v-6.8h0.6l2,5.7v-5.7h0.4v6.8h-0.5l-2.1-6L207,344.1z"/>
	<path class="st5" d="M210.4,339c0-1,0.5-1.7,1.5-1.7s1.5,0.7,1.5,1.7v3.5c0,1-0.5,1.7-1.5,1.7s-1.5-0.7-1.5-1.7V339z M210.8,342.5
		c0,0.7,0.3,1.3,1,1.3s1-0.5,1-1.3V339c0-0.7-0.3-1.3-1-1.3s-1,0.5-1,1.3V342.5z"/>
	<path class="st5" d="M215.2,344.1v-6.4h-1.4v-0.4h3.2v0.4h-1.4v6.4H215.2z"/>
	<path class="st5" d="M219.9,340.5v0.4h-1.8v2.8h2.2v0.4h-2.7v-6.8h2.7v0.4h-2.2v2.7H219.9z"/>
	<path class="st5" d="M222.4,337.3c1,0,1.4,0.7,1.4,1.6v0.7c0,1.1-0.5,1.6-1.6,1.6h-0.8v2.8H221v-6.8L222.4,337.3z M222.3,340.9
		c0.8,0,1.1-0.4,1.1-1.2v-0.8c0-0.7-0.2-1.2-1-1.2h-1v3.2H222.3z"/>
	<path class="st5" d="M225,342.6l-0.3,1.5h-0.4l1.5-6.8h0.6l1.5,6.8h-0.4l-0.3-1.5H225z M225.1,342.2h2l-1-4.4L225.1,342.2z"/>
	<path class="st5" d="M230.1,337.3c1,0,1.5,0.7,1.5,1.7v3.4c0,1-0.4,1.7-1.5,1.7h-1.5v-6.8H230.1z M230.1,343.7
		c0.8,0,1.1-0.5,1.1-1.2V339c0-0.7-0.3-1.3-1.1-1.3h-1v6L230.1,343.7z"/>
	<circle class="st1" cx="277.7" cy="381.6" r="21.8"/>
	<path class="st5" d="M291.4,386.8c0.4-0.5,0.8-1,1.1-1.5c0.7-1.4,0.5-3.1-0.7-4.2c-2.5-2.5-5.6-4.2-9-5c-6.6-1.7-13.7,0.2-18.6,5
		c-1.4,1.3-1.6,3.4-0.4,4.9c0.5,0.6,1,1.1,1.6,1.6c0.2,0.1,0.5,0.1,0.7,0c1.5-0.7,3-1.5,4.5-2.2c0.3-0.1,0.5-0.5,0.4-0.8
		c0,0,0,0,0,0c-0.2-0.7-0.3-1.5-0.5-2.2c-0.1-0.3,0-0.7,0.3-0.8c0,0,0.1,0,0.1,0c4.5-1.8,9.5-1.8,13.9,0c0.3,0.1,0.5,0.4,0.5,0.7
		c0,0,0,0.1,0,0.1c-0.2,0.7-0.3,1.5-0.5,2.2c-0.1,0.4,0.1,0.9,0.5,1c0,0,0,0,0,0c1.2,0.6,2.4,1.2,3.6,1.8
		C290.5,387.9,290.1,387.9,291.4,386.8z"/>
	<path class="st5" d="M291.4,386.8c-1.2,1.1-0.8,1.1-2.3,0.3c-1.2-0.6-2.4-1.2-3.6-1.8c-0.4-0.1-0.7-0.6-0.5-1c0,0,0,0,0,0
		c0.2-0.7,0.3-1.4,0.5-2.2c0.1-0.3,0-0.6-0.4-0.8c0,0-0.1,0-0.1,0c-4.5-1.8-9.5-1.8-13.9,0c-0.3,0.1-0.5,0.4-0.5,0.7
		c0,0,0,0.1,0,0.1c0.2,0.7,0.3,1.5,0.5,2.2c0.1,0.3,0,0.7-0.4,0.8c0,0,0,0,0,0c-1.5,0.7-3,1.5-4.5,2.2c-0.2,0.1-0.5,0.1-0.7,0
		c-0.6-0.5-1.1-1-1.6-1.6c-1.2-1.5-1-3.6,0.4-4.9c4.9-4.8,11.9-6.7,18.6-5c3.4,0.8,6.5,2.6,9,5c1.1,1.1,1.4,2.8,0.7,4.2
		C292.2,385.9,291.8,386.4,291.4,386.8z"/>
	<path class="st5" d="M265.2,79.4c1.3,0,1.9,0.8,1.9,2.1v4.2c0,1.2-0.6,2.1-1.9,2.1h-1.8v-8.4H265.2z M265.2,87.2
		c0.9,0,1.3-0.6,1.3-1.6v-4.3c0-0.9-0.4-1.6-1.3-1.6H264v7.4L265.2,87.2z"/>
	<path class="st5" d="M268.5,79.4v8.4H268v-8.4H268.5z"/>
	<path class="st5" d="M270.3,85.9l-0.4,1.8h-0.5l1.8-8.4h0.8l1.9,8.4h-0.5l-0.4-1.8H270.3z M270.4,85.4h2.4l-1.2-5.4L270.4,85.4z"/>
	<path class="st5" d="M274.7,87.7v-8.4h0.5v7.9h2.6v0.5H274.7z"/>
	<path class="st5" d="M279.3,79.4v8.4h-0.5v-8.4H279.3z"/>
	<path class="st5" d="M280.7,87.7h-0.5v-8.4h0.8l2.5,7.1v-7.1h0.5v8.4h-0.6l-2.6-7.5L280.7,87.7z"/>
	<path class="st5" d="M288.5,81.4V82H288v-0.7c0-0.9-0.4-1.6-1.3-1.6s-1.3,0.7-1.3,1.6v4.4c0,0.9,0.4,1.6,1.3,1.6s1.3-0.7,1.3-1.6
		v-1.8h-1.1v-0.5h1.6v2.3c0,1.2-0.5,2.1-1.8,2.1s-1.8-0.9-1.8-2.1v-4.3c0-1.2,0.5-2.1,1.8-2.1S288.5,80.2,288.5,81.4z"/>
	<path class="st5" d="M289.8,86.7v1h-0.5v-1H289.8z"/>
	<path class="st5" d="M291.3,86.7v1h-0.5v-1H291.3z"/>
	<path class="st5" d="M292.8,86.7v1h-0.5v-1H292.8z"/>
	<path class="st5" d="M294.3,86.7v1h-0.5v-1H294.3z"/>
</g>
<g id="freepik--Character--inject-2">
	<path class="st3" d="M140.6,148.3c-2.2-1.6-4.5-3.2-6.8-4.6c-3.2-1.8-4.3-5.9-4.3-8.4s-0.7-5.2-0.2-6.8s0.7-15.9,2.3-16.4
		s11.2,10.4,15.2,17.3c2.4,3.8,4,8.1,4.8,12.5L140.6,148.3z"/>
	<path class="st2" d="M127.6,122.3l9.1,17.4c0.4,0.7,1.2,0.9,1.9,0.6c0.1-0.1,0.2-0.2,0.3-0.3l5-5.2c0.4-0.4,0.5-1.1,0.2-1.6
		l-9.1-17.6c-0.3-0.7-1.2-1-1.9-0.6c-0.1,0.1-0.3,0.2-0.4,0.3l-5,5.3C127.4,121.1,127.4,121.8,127.6,122.3z"/>
	<path class="st3" d="M145.4,123.8c0,0-1.3-4.7-2.2-5.9s-9.3-1.7-10,0.2c-0.6,1.3,0,2.8,1.2,3.3c0.3,0.1,0.5,0.2,0.8,0.2
		c1.6,0.2,3.3,0.3,4.9,0.4l3.2,2.3L145.4,123.8z"/>
	<path class="st3" d="M149.2,124.6c0,0-3.2-3.6-4.6-4.3s-9.1,2.5-8.9,4.6c0,1.4,1.2,2.5,2.6,2.4c0.3,0,0.6-0.1,0.8-0.2
		c1.5-0.5,3.1-1.1,4.6-1.8l3.9,0.7L149.2,124.6z"/>
	<path class="st3" d="M146.7,129.4c-1.1,0.4-2.2,0.8-3.2,1.4c-1.1,0.7-3.6,2.1-4.1-0.4s5.7-5.9,5.7-5.9s5.5-1.8,5.7,2.3
		c0.2,4.1-2.1,10.5-2.3,11.2"/>
	<path class="st14" d="M146.3,199.5c0,0,13.2,14.4,25.1,12.9s10.8-20.1,7.8-28.4s-28.4-47.6-28.4-47.6l-12.9,14.4l8.7,20.7
		c0,0-7.2-12.6-10.5-15.6c-1.3-1.3-2.7-2.5-4.2-3.6"/>
	<line class="st15" x1="146.6" y1="171.3" x2="154.1" y2="191.7"/>
	<path class="st2" d="M141.6,242.4c0,0,4.6,17.4,3.8,43.7s-4.6,53.9-4.9,56.2s-4.9,56.5-4.9,70.4s-0.6,21.7-0.6,21.7l2,18.8l-20-1.7
		c0,0,0.6-32.7-3.2-47.8s-4.6-23.7-2.6-36.5c1.2-7.7,2.9-15.3,4.9-22.9c0,0,0.6-25.5-0.3-33.3s-2.6-15.9-2.6-15.9
		s-9.6,42.6-14.8,59.4s-16,56.5-18,65.5s-4,30.7-4,30.7l-16.2-0.9c0,0-3.1-27.8,0.4-54.5c2.7-20.6,7-40.9,13-60.8
		c3.8-12.2,5.8-41.4,5.8-53.6s-2-17.4,0.3-26.6c1.5-5.8,3.3-11.5,5.5-17.1c0,0,37.1,2,42.6,1.1c4.1-0.5,8.3-0.7,12.4-0.6
		L141.6,242.4z"/>
	<path class="st3" d="M101.6,341.2c0,0-10.9-2-18.1,0s6.9,8.2,11.9,8.2S101.3,344.5,101.6,341.2z"/>
	<path class="st3" d="M139.8,344.2c0,0-21.4-3.6-17.5,1.6s12.9,8.2,13.9,8.2s3,1.3,3.3-1S139.8,344.2,139.8,344.2z"/>
	<path class="st3" d="M101.6,137.4c0,0-12.5,4.8-17.6,9.1s-2.6,12.5,1,26.9s14.4,57.4,14.4,62.7c0.1,4.1,0.5,8.2,1.2,12.2
		c5.9,1.2,12,1.5,18,0.7c10.6-1.2,24.3-1.9,24.3-1.9c2.2-7.5,2.7-15.5,1.3-23.3c-5.2-28.3-10.7-53.4-16.7-65.9s-5-15.6-14.4-19.4
		S101.6,137.4,101.6,137.4z"/>
	<path class="st3" d="M114.3,137.1c0,0,11.8,14.7,10.1,26.9s-18.5,12.7-26.2,0.2s-5.8-22.8-1.4-25.9S109.3,132.3,114.3,137.1z"/>
	<path class="st14" d="M130.2,169.5c0,0,8.7,37.1,8.1,71.2s-1.2,78.4-0.6,79.6s37.1-13.5,41-15.6s-7.5-40.4-11.7-51.2
		S149.3,204,149.3,204s-8.7-41-12-45.8s-8.1-7.5-11.4-9.9S130.2,169.5,130.2,169.5z"/>
	<circle class="st3" cx="169.1" cy="298.6" r="2"/>
	<circle class="st3" cx="164.5" cy="273.7" r="2"/>
	<path class="st3" d="M159.3,248.8c0,1.1-0.9,2-2,2s-2-0.9-2-2s0.9-2,2-2S159.3,247.7,159.3,248.8z"/>
	<path class="st14" d="M116.7,139.9c0,0,15.3,7.5,18,10.8s-3.9,20.3-3.9,20.3L116.7,139.9z"/>
	<path class="st3" d="M126.6,145.1c0.6,6,0.8,12,0.6,18l3.6,7.9c0,0,6.6-17.1,3.9-20.4C133.5,149.3,130.1,147.1,126.6,145.1z"/>
	<path class="st3" d="M113.8,158.3c0,0-1.2-3.8,6-14.9s8.6-12.7,8.6-12.7l-31-4.8c0,0-2.2,19.2-2.2,19.9"/>
	<path class="st2" d="M128.5,130.7l-19.1-3l-1.8,2.2c4.8,3.5,10,6.4,15.4,8.7C127.5,131.9,128.5,130.7,128.5,130.7z"/>
	<path class="st3" d="M125.6,92.9c0,0,5,6.5,4.6,9.6c-0.5,2.5,0.6,5,2.8,6.2c1.7,0.7,4.6,1.4,3.8,3.1c-0.7,1.4-1.5,2.8-2.4,4.1
		c0,0,3.8,13.4,1.4,15.1s-8.7,2.2-12.7,2.2s-13.2-1.7-13.2-1.7s-9.1-10.6-8.7-19s6.7-14.7,10.8-17S125.6,92.9,125.6,92.9z"/>
	<path class="st16" d="M126.9,107.5c0.6,1.1,0.6,2.3,0,2.5s-1.4-0.4-2-1.6s-0.6-2.3,0-2.5S126.4,106.3,126.9,107.5z"/>
	<path class="st15" d="M125.3,118.4c0,0,1.4,3.1,6.7,1.4"/>
	<path class="st15" d="M122,103.5c1.5-2,4.1-2.8,6.5-1.9"/>
	<path class="st14" d="M85.2,146.5c0,0,10.8,26.7,14.9,48.8s10.3,54.3,9.8,71.6s-3.4,58.1-5.5,59.8s-36.8,0.2-48-3.8
		s-14.9-4.8-14.7-6.7s11-75.7,12-84.1s10.6-67.7,10.6-67.7s3.4-6.7,8.6-10.8C76.8,150.7,80.9,148.4,85.2,146.5z"/>
	<path class="st3" d="M73.4,296.1c0,0,0.7,7.9,1,8.9c0.8,2.3,1.5,4.6,2,6.9c0.3,2-5-1-5.9-2.6l-1-1.6c0,0-3.6,4.3-5.3,5
		s-5.3-2-5.9-3.3s-3.6-1.3-4.3-4.6c-0.4-2.7-0.4-5.5,0-8.2L73.4,296.1z"/>
	<path class="st14" d="M63,167.5c0,0-4.9,17.1-5.9,28.7S49.9,296,49.9,296s1,3.3,11.2,4.6s14.2-1.3,14.8-3.3s14.8-111,14.8-111"/>
	<path class="st14" d="M96.5,179.9c0,0-8.9-8.2-19.2-10.3s-14.4,1.2-14.4,1.2s-4.8-3.6-3.1-7.9s7.7-6.2,7.7-6.2s2.2-1.7,7.7-5.5
		c3-2.2,6.4-3.8,10.1-4.6C85.2,146.5,95.8,173.2,96.5,179.9z"/>
	<path class="st3" d="M59.8,162.9c-1.7,4.3,3.1,7.9,3.1,7.9s4.1-3.4,14.4-1.2s19.2,10.3,19.2,10.3c-8.9-24.7-29.1-23.3-29.1-23.3
		S61.5,158.5,59.8,162.9z"/>
	<path class="st3" d="M75.1,444.4c0,0,2.6-7.6-0.3-8.6s-13.8-1.3-14.8,1c-0.7,1.4-1.1,3-1,4.6c0,1.3-2-1-2,3s0.3,11.5,0.3,11.5
		s-9.9,6.6-11.2,10.2s-0.3,8.9,2,9.2s32,0,32,0s1.3-1.6,1.3-7.2s-1.3-15.5-1.3-15.5s4.3-8.2,2-9.6S75.1,444.4,75.1,444.4z"/>
	<path class="st3" d="M81.4,469.1H45.5c-0.2,3,0.8,6,2.5,6.3c2.3,0.3,32,0,32,0S81.2,474,81.4,469.1z"/>
	<polyline class="st3" points="75.1,444.4 73.5,455 60,453.7 59,441.5 	"/>
	<path class="st3" d="M129,448.1c0,0-12.2-4-13.8-2.6s-3,4-2,5.3l2,2.6c0,0-4,14.2-2.3,16.8s11.2,4.3,18.4,4.3s13.8-1.6,16.5-0.3
		s18.4,3.3,21.1,1.3s2.3-10.5-0.7-10.5s-17.8-6.3-21.4-9.9c-2.2-2.2-3.9-4.9-4.9-7.9c0,0,0.3-8.2-1-10.9s-8.6-3.3-9.9,0.3
		S129,448.1,129,448.1z"/>
	<path class="st3" d="M168.9,475.4c1.1-0.8,1.7-2.8,1.8-4.9c-7,2-17.1,0.9-20.6-0.4c-10.4-3.9-12.5-1.6-19.8-1.6
		c-5.3,0-13.7-1.6-17.8-2.5c-0.2,1.9-0.1,3.4,0.3,4.1c1.7,2.6,11.2,4.3,18.5,4.3c7.3,0,13.8-1.6,16.5-0.3S166.2,477.4,168.9,475.4z"
		/>
	<path class="st3" d="M129,448.1l8.6,8.6c0,0,2.3-5.3,5.3-6.9"/>
	<path class="st2" d="M111.9,102.3c0,0-3.1,5-0.5,6.2s6.2,3.6,5,6.7s-7.2,4.6-3.8,7.2s9.1,5.5,6.2,8.7s-6,2.9-5.5,5s3.6,4.1,1.2,6.2
		s-6.5-3.1-8.4-1.9s1.9,6.5-2.2,7.9s-8.9-5-10.8-3.6s-0.7,4.3-5.8,5s-6.2-3.6-8.2-3.6s-7.9,1.9-8.2-1.9s2-9.3,4.4-9.3s3.4,1.7,2.9-1
		s-3.4-4.3,0-5.8c1.7-0.8,3.5-1.4,5.3-1.7c0,0,1.2-5,11.8-13.7S111.9,102.3,111.9,102.3z"/>
	<path class="st3" d="M92.7,82.1c0,0,2.2,0.5,4.6-3.1s-1.9-12-10.3-12S67.7,79.2,71.3,84.1s10.3,2.4,11.3,2.4S92.7,82.1,92.7,82.1z"
		/>
	<path class="st3" d="M119.1,86.7c-4.9-2.8-10.3-4.6-15.9-5.3c-9.4-1.2-16.6,0.5-21.4,6c-4.9,5.5-7.5,12.8-7.2,20.2
		c0.2,7.9,5.8,13.9,5.8,13.9s15.6-17.1,25-23.1s14.7-10.1,14.7-10.1L119.1,86.7z"/>
	<path class="st3" d="M81.4,128.8c0.3,0.5,1,0.7,1.5,0.4c0.1-0.1,0.3-0.2,0.4-0.3c2.2-3.1,8.5-10.9,22.6-20.6
		c18.5-12.7,21.4-13.2,21.4-13.2s-6-8.9-7.9-10.1s-19.9,8.6-30.3,18.7s-12.7,15.4-11.5,18C78.4,123.6,80.3,126.9,81.4,128.8z"/>
	<line class="st15" x1="79.2" y1="116.5" x2="83.8" y2="124.7"/>
	<line class="st15" x1="81.5" y1="114.2" x2="85.5" y2="120.7"/>
	<line class="st15" x1="83.8" y1="110.5" x2="89.4" y2="118.1"/>
	<line class="st15" x1="88.1" y1="108.6" x2="93" y2="115.5"/>
	<line class="st15" x1="93" y1="102" x2="100.3" y2="110.9"/>
	<line class="st15" x1="103.9" y1="99.7" x2="106.9" y2="103.3"/>
	<line class="st15" x1="113.8" y1="89.4" x2="116.8" y2="93.4"/>
</g>
<g id="freepik--Floor--inject-2">
	<line class="st17" x1="17" y1="475" x2="474" y2="475"/>
</g>
</svg>
