<svg xmlns="http://www.w3.org/2000/svg" viewBox="0 0 500 500"><g id="freepik--Shadow--inject-15"><ellipse id="freepik--path--inject-15" cx="250" cy="416.24" rx="193.89" ry="11.32" style="fill:#f5f5f5"></ellipse></g><g id="freepik--Device--inject-15"><rect x="174.46" y="123.26" width="160.46" height="288.61" rx="9.61" style="fill:#0046BB"></rect><rect x="174.46" y="123.26" width="160.46" height="288.61" rx="9.61" style="fill:#fff;isolation:isolate;opacity:0.2"></rect><path d="M329.51,132.92V401.67a3.94,3.94,0,0,1-4,3.93H183.44a3.51,3.51,0,0,1-3.56-3.6V132.61a3.17,3.17,0,0,1,3.05-3.3h35.52a2.49,2.49,0,0,1,2.29,1.6l1.47,3.61a2.48,2.48,0,0,0,2.28,1.58H285a2.48,2.48,0,0,0,2.28-1.55l1.47-3.64a2.5,2.5,0,0,1,2.29-1.6h35A3.59,3.59,0,0,1,329.51,132.92Z" style="fill:#263238"></path><path d="M321.76,129.31C308.52,166,265.45,266.69,179.88,307.77V132.61a3.17,3.17,0,0,1,3.05-3.3h35.52a2.49,2.49,0,0,1,2.29,1.6l1.47,3.61a2.48,2.48,0,0,0,2.28,1.58H285a2.48,2.48,0,0,0,2.28-1.55l1.47-3.64a2.5,2.5,0,0,1,2.29-1.6Z" style="fill:#fff;opacity:0.1"></path><path d="M329.51,261.06V401.67a3.94,3.94,0,0,1-4,3.93H183.44a3.51,3.51,0,0,1-3.56-3.6V338.09C219.41,286.06,287.34,267.62,329.51,261.06Z" style="fill:#fff;opacity:0.1"></path><path d="M254.67,129.66a2.06,2.06,0,1,1-2.06-2.06A2.05,2.05,0,0,1,254.67,129.66Z" style="fill:#fff;isolation:isolate;opacity:0.6000000000000001"></path><path d="M258.82,129.66a1.32,1.32,0,1,1-1.31-1.32A1.31,1.31,0,0,1,258.82,129.66Z" style="fill:#fff;isolation:isolate;opacity:0.6000000000000001"></path><rect x="300.13" y="377.9" width="19.33" height="19.33" rx="2.62" style="fill:#fff;opacity:0.7000000000000001"></rect><rect x="272.58" y="377.9" width="19.33" height="19.33" rx="2.62" style="fill:#fff;opacity:0.7000000000000001"></rect><rect x="245.03" y="377.9" width="19.33" height="19.33" rx="2.62" style="fill:#fff;opacity:0.7000000000000001"></rect><rect x="217.47" y="377.9" width="19.33" height="19.33" rx="2.62" style="fill:#fff;opacity:0.7000000000000001"></rect><rect x="189.92" y="377.9" width="19.33" height="19.33" rx="2.62" style="fill:#fff;opacity:0.7000000000000001"></rect><path d="M316.77,388.67v-2.21l-1.15-.11a5.79,5.79,0,0,0-.85-2.05l.74-.88-1.57-1.57-.88.73a6.18,6.18,0,0,0-2.05-.85l-.11-1.14h-2.21l-.11,1.14a6,6,0,0,0-2,.85l-.89-.73-1.56,1.57.73.88a6,6,0,0,0-.85,2.05l-1.14.11v2.21l1.14.11a5.85,5.85,0,0,0,.85,2l-.73.89,1.56,1.56.89-.73a5.85,5.85,0,0,0,2,.85l.11,1.14h2.21l.11-1.14a6,6,0,0,0,2.05-.85l.88.73,1.57-1.56-.74-.89a5.67,5.67,0,0,0,.85-2Zm-7,1.89a3,3,0,1,1,3-3A3,3,0,0,1,309.8,390.56Z" style="fill:#0046BB"></path><path d="M197.14,385.16l.4-.4a.62.62,0,0,1,.87,0l4,4a.63.63,0,0,1,0,.88l-.4.4,2.3,2.31.61-.81a3.09,3.09,0,0,0-.29-4l-4.93-4.93a3.09,3.09,0,0,0-4-.29l-.81.61Z" style="fill:#0046BB"></path><rect x="193.28" y="384.09" width="4.2" height="1.13" rx="0.39" transform="translate(329.22 -25.49) rotate(45)" style="fill:#0046BB"></rect><rect x="200.39" y="391.2" width="4.21" height="1.13" rx="0.39" transform="translate(336.32 -28.44) rotate(45)" style="fill:#0046BB"></rect><path d="M229.9,384.15a2.77,2.77,0,1,1-2.76-2.76A2.76,2.76,0,0,1,229.9,384.15Z" style="fill:#0046BB"></path><path d="M232.48,393.74a.81.81,0,0,0,.81-.94,6.24,6.24,0,0,0-12.31,0,.82.82,0,0,0,.81.94Z" style="fill:#0046BB"></path><path d="M286,383.79a5.33,5.33,0,1,0-.41,7.92l1.9,1.11-1.11-1.9A5.34,5.34,0,0,0,286,383.79Z" style="fill:#0046BB"></path><path d="M250.61,384.57a1,1,0,1,0,1,1A1,1,0,0,0,250.61,384.57Z" style="fill:#0046BB"></path><circle cx="254.69" cy="385.58" r="1.01" style="fill:#0046BB"></circle><path d="M258.77,386.6a1,1,0,1,0,0-2,1,1,0,0,0,0,2Z" style="fill:#0046BB"></path><path d="M250.61,388.53a1,1,0,1,0,1,1A1,1,0,0,0,250.61,388.53Z" style="fill:#0046BB"></path><circle cx="254.69" cy="389.54" r="1.01" style="fill:#0046BB"></circle><path d="M258.77,388.53a1,1,0,0,0,0,2,1,1,0,1,0,0-2Z" style="fill:#0046BB"></path><path d="M245.24,369.22h-3.91a1.71,1.71,0,0,1-1.71-1.71h0a1.71,1.71,0,0,1,1.71-1.71h3.91a1.72,1.72,0,0,1,1.71,1.71h0A1.72,1.72,0,0,1,245.24,369.22Z" style="fill:#fff"></path><path d="M256.65,369.68h-3.92a2.17,2.17,0,0,1,0-4.34h3.92a2.17,2.17,0,0,1,0,4.34Zm-3.92-3.41a1.24,1.24,0,1,0,0,2.48h3.92a1.24,1.24,0,0,0,0-2.48Z" style="fill:#fff"></path><path d="M268.06,369.68h-3.92a2.17,2.17,0,0,1,0-4.34h3.92a2.17,2.17,0,0,1,0,4.34Zm-3.92-3.41a1.24,1.24,0,0,0,0,2.48h3.92a1.24,1.24,0,0,0,0-2.48Z" style="fill:#fff"></path><path d="M313.37,264H196a8.68,8.68,0,0,1-8.68-8.68h0a8.69,8.69,0,0,1,8.68-8.69H313.37a8.68,8.68,0,0,1,8.68,8.69h0A8.68,8.68,0,0,1,313.37,264Z" style="fill:#fff"></path><path d="M312.87,251.07a3.29,3.29,0,1,0,0,4.66A3.3,3.3,0,0,0,312.87,251.07Z" style="fill:none"></path><path d="M313.42,250.53a4.06,4.06,0,1,0-.3,6l.21.21a.73.73,0,0,0,.18.73l2.74,2.74a.77.77,0,0,0,1.09,0,.76.76,0,0,0,0-1.08l-2.74-2.74a.77.77,0,0,0-.73-.19l-.21-.21A4.05,4.05,0,0,0,313.42,250.53Zm-5.2,5.2a3.29,3.29,0,1,1,4.65,0A3.29,3.29,0,0,1,308.22,255.73Z" style="fill:#263238"></path><circle cx="209.06" cy="337.77" r="16.48" transform="translate(-167.7 463.64) rotate(-76.72)" style="fill:#0046BB"></circle><circle cx="254.69" cy="337.77" r="16.48" transform="translate(-164.24 279.02) rotate(-45)" style="fill:#0046BB"></circle><circle cx="300.32" cy="337.77" r="16.48" transform="translate(-106.4 140.64) rotate(-22.5)" style="fill:#0046BB"></circle><path d="M301.09,337.32l7-5.88a1.77,1.77,0,0,0-.46-.07H293a1.77,1.77,0,0,0-.46.07l7,5.88A1.21,1.21,0,0,0,301.09,337.32Z" style="fill:#fff"></path><path d="M301.69,338a2.13,2.13,0,0,1-2.74,0L291.74,332a1.69,1.69,0,0,0-.41,1.09v9.44a1.68,1.68,0,0,0,1.68,1.68h14.62a1.68,1.68,0,0,0,1.68-1.68v-9.44a1.69,1.69,0,0,0-.41-1.09Z" style="fill:#fff"></path><path d="M262.23,332.6h-4l-.72-1.84a.82.82,0,0,0-.77-.53h-4.12a.82.82,0,0,0-.77.53l-.72,1.84h-4a1,1,0,0,0-1,1v10.7a1,1,0,0,0,1,1h15.08a1,1,0,0,0,1-1v-10.7A1,1,0,0,0,262.23,332.6Zm-7.54,10.24a3.79,3.79,0,1,1,3.79-3.79A3.79,3.79,0,0,1,254.69,342.84Z" style="fill:#fff"></path><path d="M217.46,345.23H200.67A1.63,1.63,0,0,1,199,343.6V331.94a1.63,1.63,0,0,1,1.64-1.63h16.79a1.63,1.63,0,0,1,1.63,1.63V343.6a2,2,0,0,1,0,.34A1.63,1.63,0,0,1,217.46,345.23Zm-16.79-14a.71.71,0,0,0-.72.71V343.6a.71.71,0,0,0,.72.71h16.79a.71.71,0,0,0,.69-.56.47.47,0,0,0,0-.15V331.94a.71.71,0,0,0-.71-.71Z" style="fill:#fff"></path><path d="M218.61,339v4.84a1.19,1.19,0,0,1-1.15.93h-16.8a1.18,1.18,0,0,1-1.17-1.17v-1.22l5.58-5.58,3.47,3.48,5.67-5.67Z" style="fill:#fff"></path><path d="M205.35,333.61a1,1,0,1,1-1-1A1,1,0,0,1,205.35,333.61Z" style="fill:#fff"></path><path d="M189.84,168.28c0-4.85,2.59-7.62,6.08-7.62s6.07,2.77,6.07,7.62-2.6,7.62-6.07,7.62S189.84,173.13,189.84,168.28Zm10,0c0-3.81-1.62-5.72-3.94-5.72s-3.95,1.91-3.95,5.72,1.61,5.73,3.95,5.73S199.86,172.09,199.86,168.28Z" style="fill:#fff"></path><path d="M246.61,168.09c0,5.09-2.88,7.81-7.05,7.81a7.24,7.24,0,0,1-3.7-.87l.81-1.66a5.25,5.25,0,0,0,2.87.7c3,0,4.94-1.89,4.94-5.62v-.53a5,5,0,0,1-4.3,2c-3,0-5.09-1.77-5.09-4.51s2.3-4.71,5.26-4.71C244.35,160.66,246.61,163.35,246.61,168.09ZM244,165.26c0-1.53-1.24-2.87-3.55-2.87-1.94,0-3.28,1.13-3.28,2.89s1.3,2.87,3.38,2.87S244,166.9,244,165.26Z" style="fill:#fff"></path><path d="M233.62,172.07h-2.83v3.66h-2.07v-3.66h-8.27v-1.49l7.62-9.75h2.29l-7.3,9.41h5.73V167h2v3.23h2.83Z" style="fill:#fff"></path><path d="M214.46,171.18c0,2.57-1.83,4.63-5.64,4.63a8.56,8.56,0,0,1-5.47-1.8l1-1.68a6.72,6.72,0,0,0,4.47,1.59c2.25,0,3.53-1,3.53-2.66s-1.07-2.72-4.51-2.72h-3.39l.79-7.79h8.41v1.85H207l-.41,4.09h1.66C212.71,166.69,214.46,168.54,214.46,171.18Z" style="fill:#fff"></path><path d="M219,165.92a.74.74,0,1,1-.74-.74A.74.74,0,0,1,219,165.92Z" style="fill:#fff"></path><circle cx="218.22" cy="170.64" r="0.74" style="fill:#fff"></circle><path d="M190.79,184.17l.2-.41a1.87,1.87,0,0,0,1.21.43c.63,0,.9-.25.9-.57,0-.89-2.22-.33-2.22-1.69,0-.56.44-1.05,1.41-1.05a2.12,2.12,0,0,1,1.17.33l-.17.42a1.84,1.84,0,0,0-1-.3c-.63,0-.89.26-.89.58,0,.89,2.21.33,2.21,1.68,0,.56-.45,1-1.41,1A2.22,2.22,0,0,1,190.79,184.17Z" style="fill:#fff"></path><path d="M194.35,183v-2.08h.52V183c0,.81.38,1.17,1,1.17s1-.36,1-1.17v-2.06h.51V183a1.55,1.55,0,1,1-3.1,0Z" style="fill:#fff"></path><path d="M201.67,180.93v3.66h-.42l-2.2-2.73v2.73h-.53v-3.66H199l2.2,2.73v-2.73Z" style="fill:#fff"></path><path d="M203.17,184.26a1.08,1.08,0,0,1-.09.38l-.25.72h-.33l.2-.78a.32.32,0,0,1-.22-.32.35.35,0,1,1,.69,0Z" style="fill:#fff"></path><path d="M205.37,180.93h1.55a1.84,1.84,0,1,1,0,3.66h-1.55Zm1.52,3.2a1.38,1.38,0,1,0,0-2.75h-1v2.75Z" style="fill:#fff"></path><path d="M212.36,184.13v.46H209.7v-3.66h2.59v.45h-2.07v1.13h1.84V183h-1.84v1.18Z" style="fill:#fff"></path><path d="M212.9,182.76a2,2,0,0,1,3.33-1.31l-.34.33a1.41,1.41,0,1,0,0,1.95l.34.33a2,2,0,0,1-3.33-1.3Z" style="fill:#fff"></path><path d="M219.23,180.93v3.66h-.52v-3.21h-.83v-.45Z" style="fill:#fff"></path><path d="M222.53,183.51c0,.62-.45,1.12-1.38,1.12a2.12,2.12,0,0,1-1.35-.44l.24-.42a1.67,1.67,0,0,0,1.11.39c.55,0,.86-.25.86-.64s-.28-.64-.9-.64h-.3v-.37l.92-1.13H220v-.45h2.42v.35l-1,1.18C222.16,182.53,222.53,183,222.53,183.51Z" style="fill:#fff"></path><rect x="196.37" y="137.67" width="1.85" height="2.46" transform="translate(394.58 277.8) rotate(180)" style="fill:#fff;isolation:isolate;opacity:0.6000000000000001"></rect><rect x="193.35" y="136.85" width="1.85" height="3.29" transform="translate(388.56 276.98) rotate(180)" style="fill:#fff;isolation:isolate;opacity:0.6000000000000001"></rect><rect x="190.34" y="136.03" width="1.85" height="4.11" transform="translate(382.53 276.16) rotate(180)" style="fill:#fff;isolation:isolate;opacity:0.6000000000000001"></rect><rect x="187.33" y="135.2" width="1.85" height="4.93" transform="translate(376.51 275.34) rotate(180)" style="fill:#fff;isolation:isolate;opacity:0.6000000000000001"></rect><rect x="311.48" y="136.77" width="1.1" height="2.46" style="fill:#fff;isolation:isolate;opacity:0.6000000000000001"></rect><rect x="313.32" y="135.87" width="8.73" height="4.26" transform="translate(635.38 276.01) rotate(180)" style="fill:#fff;isolation:isolate;opacity:0.6000000000000001"></rect><path d="M285.75,176.56a4.09,4.09,0,0,1,5.29-3.94,8.83,8.83,0,0,1-.09-1.27,8.71,8.71,0,0,1,8.72-8.71,8.51,8.51,0,0,1,1.6.15,7.61,7.61,0,0,1,14.12,3.85h.13a7,7,0,1,1,0,14H289.75A4.11,4.11,0,0,1,285.75,176.56Z" style="fill:#fff;opacity:0.5"></path></g><g id="freepik--icon-2--inject-15"><path d="M385.31,187a1.86,1.86,0,1,1,1.86-1.86A1.86,1.86,0,0,1,385.31,187Zm0-2.72a.86.86,0,1,0,.86.86A.86.86,0,0,0,385.31,184.24Z" style="fill:#0046BB"></path><path d="M405.46,185.6h-2v-1h2Zm-4,0h-2v-1h2Zm-4,0h-2v-1h2Zm-4,0h-2v-1h2Zm-4,0h-2v-1h2Zm18.1-.07-.2-1a2.41,2.41,0,0,0,1.38-.84l.78.63A3.44,3.44,0,0,1,407.56,185.53Zm2.72-3.36h-1v-2h1Zm0-4h-1v-2h1Zm0-4h-1v-2h1Zm0-4h-1v-2h1Zm0-4h-1v-2h1Zm0-4h-1v-2h1Zm0-4h-1v-2h1Zm0-4h-1v-2h1Zm0-4h-1v-2h1Zm0-4h-1v-2h1Zm0-4h-1v-2h1Zm0-4h-1v-2h1Zm0-4h-1v-2h1Zm0-4h-1v-2h1Zm0-4h-1v-2h1Z" style="fill:#0046BB"></path><circle cx="409.78" cy="124.17" r="27.23" style="fill:#0046BB"></circle><path d="M413,130.34l-.79.78a1.19,1.19,0,0,1-1.69,0l-7.73-7.73a1.19,1.19,0,0,1,0-1.69l.78-.79-4.48-4.48L398,118a6,6,0,0,0,.55,7.86l9.59,9.59A6,6,0,0,0,416,136l1.57-1.18Z" style="fill:#fff"></path><rect x="412.37" y="130.22" width="8.18" height="2.2" rx="0.76" transform="translate(618.07 518.66) rotate(-135)" style="fill:#fff"></rect><rect x="398.54" y="116.39" width="8.18" height="2.2" rx="0.76" transform="translate(604.25 485.28) rotate(-135)" style="fill:#fff"></rect><path d="M415.67,123.75a.5.5,0,0,1-.5-.5,4.48,4.48,0,0,0-4.47-4.47.5.5,0,0,1-.5-.5.5.5,0,0,1,.5-.5,5.48,5.48,0,0,1,5.47,5.47A.5.5,0,0,1,415.67,123.75Z" style="fill:#fff"></path><path d="M419.19,123.75a.5.5,0,0,1-.5-.5,8,8,0,0,0-8-8,.5.5,0,0,1-.5-.5.5.5,0,0,1,.5-.5,9,9,0,0,1,9,9A.5.5,0,0,1,419.19,123.75Z" style="fill:#fff"></path><path d="M422.81,123.75a.5.5,0,0,1-.5-.5,11.63,11.63,0,0,0-11.61-11.61.5.5,0,0,1-.5-.5.5.5,0,0,1,.5-.5,12.63,12.63,0,0,1,12.61,12.61A.5.5,0,0,1,422.81,123.75Z" style="fill:#fff"></path></g><g id="freepik--character-2--inject-15"><path d="M349.16,211c0,2.53-.15,4.88-.32,7.31s-.49,4.81-.83,7.22A71.83,71.83,0,0,1,344.55,240c-1.66,4.52-3.43,8.83-5.27,13.17l-2.82,6.47c-1,2.14-1.94,4.28-3,6.4l-4.06-1.47c.56-2.29,1.2-4.55,1.8-6.82l1.93-6.77,4-13.39a85.11,85.11,0,0,0,2.38-13.08c.25-2.24.43-4.5.59-6.76s.27-4.58.36-6.74Z" style="fill:#b55b52"></path><path d="M362.07,187.2c.8,4.3,0,11.54-3,14.27,0,0,2.91,4.32,10.91,4.61,8.79.32,4.24-4.17,4.24-4.17-4.79-1.31-4.63-4.83-3.77-8.11Z" style="fill:#b55b52"></path><path d="M386.91,206.9c2.9,1.65,5.92,3.41,8.8,4.91.72.37,1.44.73,2.11,1s1.37.57,1.65.65c0,0,.09,0,.06,0h0s0,0-.1,0l-.28,0a1.91,1.91,0,0,0-.47.12,3.15,3.15,0,0,0-1.29.82,2.78,2.78,0,0,0-.5.68,2.66,2.66,0,0,0-.27.63,1.89,1.89,0,0,0-.09.45,1.73,1.73,0,0,0,0,.3c0,.3.05.36.05.33a3.81,3.81,0,0,0-.17-.6c-.11-.29-.25-.61-.41-.95-.65-1.35-1.52-2.81-2.4-4.25s-1.83-2.9-2.78-4.35l-5.83-8.7,3.27-2.82c2.63,2.48,5.1,5,7.5,7.72,1.19,1.35,2.37,2.73,3.5,4.17a44.9,44.9,0,0,1,3.29,4.65,14.17,14.17,0,0,1,.78,1.41,9.43,9.43,0,0,1,.74,1.88,5.82,5.82,0,0,1,.22,1.64,3.44,3.44,0,0,1,0,.62,4.32,4.32,0,0,1-.16.78,5,5,0,0,1-.39.93,5.07,5.07,0,0,1-.7,1,4.85,4.85,0,0,1-1.85,1.16,7,7,0,0,1-.79.19l-.61.06a3.59,3.59,0,0,1-.44,0h-.34a5,5,0,0,1-.6-.05,12.46,12.46,0,0,1-1.88-.35c-.56-.14-1.06-.29-1.55-.46-1-.32-1.87-.67-2.75-1a68,68,0,0,1-9.79-5.16Z" style="fill:#b55b52"></path><path d="M351.17,245.91,380.63,247c7.31-41.88,3.87-42.67,3.87-42.67a59.24,59.24,0,0,0-7-2l-.41-.08c-1.93-.38-2.33-.42-4.89-.75-4.37-.34-8.42-.54-13.38-.49l-.94,0c-.9,0-1.78.07-2.64.12-.58,0-1.15.07-1.69.12s-1.28.12-1.87.19c-3.15.33-5.38.73-5.38.73C351.85,226.74,351.77,234.06,351.17,245.91Z" style="fill:#263238"></path><path d="M380.61,217.33a24.45,24.45,0,0,0,2.78,12.35c1.16-8.15,1.68-13.68,1.84-17.43C383,212.3,380.78,213.38,380.61,217.33Z" style="opacity:0.2"></path><path d="M379.58,181c-.06.57.2,1.08.58,1.13s.74-.37.8-1-.2-1.08-.58-1.13S379.64,180.41,379.58,181Z" style="fill:#263238"></path><path d="M380.21,180.05l1.44-.22S380.82,180.82,380.21,180.05Z" style="fill:#263238"></path><path d="M380,181.61a16.26,16.26,0,0,0,1.68,3.95,2.51,2.51,0,0,1-2.11.11Z" style="fill:#a02724"></path><path d="M380.77,177.25a.45.45,0,0,1-.16,0,2.8,2.8,0,0,0-2.52,0,.34.34,0,0,1-.47-.12.34.34,0,0,1,.12-.47,3.54,3.54,0,0,1,3.15,0,.33.33,0,0,1,.17.45A.34.34,0,0,1,380.77,177.25Z" style="fill:#263238"></path><path d="M360.34,176.81c-.32,7.13-.6,10.14,2.62,14.25,4.83,6.19,13.71,5.26,16.16-1.57,2.2-6.15,2.34-16.78-4.34-20.53A9.55,9.55,0,0,0,360.34,176.81Z" style="fill:#b55b52"></path><path d="M365.49,349C373,377.4,387,411.11,387,411.11l4.86-1.89L377.59,349Z" style="fill:#eec1bb"></path><path d="M384.4,408.33c-.14-.64,7.81-2.05,7.81-2.05s6,3.72,11,3.67,3,3.4-2.21,4.68L388,417.8C384.32,418.71,385.87,415,384.4,408.33Z" style="fill:#263238"></path><path d="M393.33,407.08l-.08,0h0l-.05-.05h0l0-.06h0a.25.25,0,0,1,0-.08c0-.11.23-2.08,1.18-2.78a1.25,1.25,0,0,1,1-.22c.4.09.63.26.68.54s-.38,1-.93,1.46a3.23,3.23,0,0,1,1.8-.24.86.86,0,0,1,.55.43.78.78,0,0,1,0,.88,1.13,1.13,0,0,1-.64.35A10.22,10.22,0,0,1,393.33,407.08Zm.69-.31c1.27.21,2.81.29,3.1-.11,0,0,.11-.14-.05-.42a.42.42,0,0,0-.29-.22,2,2,0,0,0-1,.05A9.62,9.62,0,0,0,394,406.77Zm.57-2.35a3.47,3.47,0,0,0-.93,2c1-.73,2-1.61,1.95-2,0-.11-.22-.17-.34-.19a.81.81,0,0,0-.38,0A.85.85,0,0,0,394.59,404.42Z" style="fill:#0046BB"></path><path d="M351,241.82s-11,23.14-7.1,45,15.59,49.86,18.75,56.66,15,47.06,15,47.06l10.2-3.32s-9.12-40-12-53.88c-1.35-6.58-12.94-53.41-12.94-53.41s19.85-14.75,18.45-37.83Z" style="fill:#0046BB"></path><path d="M387.83,387.2l-10.21,3.33s-11.79-40.27-14.95-47.07c-1.63-3.5-5.52-12.63-9.45-23.65-3.69-10.38-7.42-22.43-9.3-33-3.87-21.83,7.1-45,7.1-45l30.34.26c1.41,23.09-18.45,37.83-18.45,37.83l4.5,18.28c3.42,13.93,7.65,31.32,8.44,35.13C378.71,347.24,387.83,387.2,387.83,387.2Z" style="fill:#fff;isolation:isolate;opacity:0.5"></path><path d="M341.48,360.38a451.52,451.52,0,0,0-13.11,44.44l4.95,1.65,20.73-46.09Z" style="fill:#eec1bb"></path><path d="M328.16,401c.3-.58,7.32,3.4,7.32,3.4s2.26,6.7,6.09,9.82.16,4.55-4.68,2.2l-12-5.82C321.47,409,325.05,407.09,328.16,401Z" style="fill:#263238"></path><path d="M335.83,405.77a.21.21,0,0,1,0-.07h0a.2.2,0,0,1,0-.07h0a.15.15,0,0,1,0-.07h0l.05-.07c.08-.08,1.5-1.46,2.67-1.39a1.23,1.23,0,0,1,.93.48.75.75,0,0,1,.18.84c-.21.37-.91.5-1.65.53a3.33,3.33,0,0,1,1.54,1,.92.92,0,0,1,.15.68c-.1.48-.36.64-.55.68a1.11,1.11,0,0,1-.73-.13A10.2,10.2,0,0,1,335.83,405.77Zm.73.2c.85,1,2,2,2.46,1.9,0,0,.16,0,.23-.36a.46.46,0,0,0-.08-.35,2,2,0,0,0-.78-.58A9.59,9.59,0,0,0,336.56,406Zm1.94-1.45a3.52,3.52,0,0,0-2,1c1.27.11,2.58,0,2.76-.27.05-.09-.07-.27-.14-.36a.81.81,0,0,0-.62-.33Z" style="fill:#0046BB"></path><path d="M387.83,387.2l-10.21,3.33s-11.79-40.27-14.95-47.07c-1.63-3.5-5.52-12.63-9.45-23.65l3.63-31.58s-4.34-2.54-7.05-12.32a15.76,15.76,0,0,0,8.41,3.68c1.17.07,4.65,7.51,9.2,18.6,3.42,13.93,7.65,31.32,8.44,35.13C378.71,347.24,387.83,387.2,387.83,387.2Z" style="isolation:isolate;opacity:0.2"></path><path d="M383.6,292.91a113,113,0,0,1-7.75,27.24c-4,9.37-8.49,16.27-11.73,23.38-5.72,12.58-20.95,46.55-20.95,46.55L331.45,386s16.29-45.76,22.49-55.86c0,0,3.88-32.82,4.27-50.57,0,0-4.16-3.68-5.56-12.14-1.48-8.93,28.3-22.6,28.3-22.6A116.43,116.43,0,0,1,383.6,292.91Z" style="fill:#0046BB"></path><path d="M383.6,292.91a113,113,0,0,1-7.75,27.24c-4,9.37-8.49,16.27-11.73,23.38-5.72,12.58-20.95,46.55-20.95,46.55L331.45,386s16.29-45.76,22.49-55.86c0,0,3.88-32.82,4.27-50.57,0,0-4.16-3.68-5.56-12.14-1.48-8.93,28.3-22.6,28.3-22.6A116.43,116.43,0,0,1,383.6,292.91Z" style="fill:#fff;isolation:isolate;opacity:0.5"></path><polygon points="360.82 247.23 376.68 247.47 376.87 242.7 360.99 242.87 360.82 247.23" style="fill:#263238"></polygon><polygon points="378.27 242.69 378.08 247.49 379.68 247.51 380.12 242.67 378.27 242.69" style="fill:#263238"></polygon><polygon points="359.59 242.89 351.17 242.98 350.8 247.08 359.42 247.21 359.59 242.89" style="fill:#263238"></polygon><path d="M346.34,202.18c-3.81.45-8.21,12.52-8.21,12.52l11.68,4.8S355.31,201.11,346.34,202.18Z" style="fill:#263238"></path><path d="M380.64,203.1c4.88,1.14,11.89,6.18,11.89,6.18s-1.6,8.08-5.94,10.22a23.91,23.91,0,0,1-6.32-5.68C377.32,210,380.64,203.1,380.64,203.1Z" style="fill:#263238"></path><path d="M381.65,173.31c-.47-2.79-3-8.42-12.81-8.51-8.68-.08-8.68,3.59-8.68,3.59-9.28,1.84-7.94,8.65-7.25,15.93-.32,6.75-1.27,12.3-5.62,16.5-5.22,5-2.86,12.87-2.83,13a.23.23,0,0,0,.23.16h.07a.24.24,0,0,0,.15-.3c0-.07-2.29-7.62,2.71-12.46,3.52-3.39,4.86-7.61,5.44-12.6-.18,2.74-.86,8.93-3.3,12.05-5.7,7.3-4.07,17.2,3.12,20.35s17.95-2.85,17.44-13.05a30.62,30.62,0,0,1,.91-8.21,44.29,44.29,0,0,0-.65,8.83c.26,11.12-7.95,13-8.3,13a.25.25,0,0,0-.19.28.26.26,0,0,0,.24.19h.05c.09,0,8.95-2,8.68-13.52a52.82,52.82,0,0,1,2-15A86.81,86.81,0,0,1,377.57,183S382.55,178.79,381.65,173.31Z" style="fill:#0046BB"></path><path d="M381.65,173.31c-.47-2.79-3-8.42-12.81-8.51-8.68-.08-8.68,3.59-8.68,3.59-9.28,1.84-7.94,8.65-7.25,15.93-.32,6.75-1.27,12.3-5.62,16.5-5.22,5-2.86,12.87-2.83,13a.23.23,0,0,0,.23.16h.07a.24.24,0,0,0,.15-.3c0-.07-2.29-7.62,2.71-12.46,3.52-3.39,4.86-7.61,5.44-12.6-.18,2.74-.86,8.93-3.3,12.05-5.7,7.3-4.07,17.2,3.12,20.35s17.95-2.85,17.44-13.05a30.62,30.62,0,0,1,.91-8.21,44.29,44.29,0,0,0-.65,8.83c.26,11.12-7.95,13-8.3,13a.25.25,0,0,0-.19.28.26.26,0,0,0,.24.19h.05c.09,0,8.95-2,8.68-13.52a52.82,52.82,0,0,1,2-15A86.81,86.81,0,0,1,377.57,183S382.55,178.79,381.65,173.31Z" style="isolation:isolate;opacity:0.5"></path><path d="M374.72,181.09a6.39,6.39,0,0,0,.55,3.86c.79,1.68,2.14,1.54,2.72.25s.74-3.44-.44-4.74S375,179.64,374.72,181.09Z" style="fill:#b55b52"></path><path d="M372.93,186.23a.82.82,0,0,1,.11-1l4.47-4a.52.52,0,0,1,.81.17l6.83,11.34a1,1,0,0,1-.07,1.08l-4.47,4c-.25.23-.65.07-.84-.25Z" style="fill:#263238"></path><path d="M380.3,197.21l-6.9-11.45a.69.69,0,0,1,.07-.91l3.79-3.42c.26-.23.82-.45,1-.13l6.92,11.5c.2.32-.1,1-.36,1.22L381,197.44C380.79,197.67,380.5,197.53,380.3,197.21Z" style="fill:#fff;opacity:0.5"></path><path d="M388.35,195.61s-3.4-5.86-4-6.26-3.56-2-3.73-1.8-2.64,4.34-2.64,4.34l3.41,4.76s2.56,2,4.43,2.18Z" style="fill:#b55b52"></path><path d="M329.72,264.12s-3,6.06-3,6.81.29,4.06.54,4.11,5.08-.18,5.08-.18l2.12-5.45s.31-3.27-.61-4.9Z" style="fill:#b55b52"></path></g><g id="freepik--icon-1--inject-15"><path d="M107.63,196.74a1.86,1.86,0,1,1,1.86-1.86A1.86,1.86,0,0,1,107.63,196.74Zm0-2.72a.86.86,0,1,0,.86.86A.86.86,0,0,0,107.63,194Z" style="fill:#0046BB"></path><rect x="97.11" y="125.15" width="1" height="1" style="fill:#0046BB"></rect><path d="M103.23,195.38h-2v-1h2ZM99,195a3.35,3.35,0,0,1-1.6-1.7l.91-.39a2.44,2.44,0,0,0,1.14,1.19Zm-.88-3.89h-1v-2h1Zm0-4.07h-1v-2h1Zm0-4.06h-1v-2h1Zm0-4.06h-1v-2h1Zm0-4.06h-1v-2h1Zm0-4.06h-1v-2h1Zm0-4.06h-1v-2h1Zm0-4.07h-1v-2h1Zm0-4.06h-1v-2h1Zm0-4.06h-1v-2h1Zm0-4.06h-1v-2h1Zm0-4.06h-1v-2h1Zm0-4.07h-1v-2h1Zm0-4.06h-1v-2h1Zm0-4.06h-1v-2h1Zm0-4.06h-1v-2h1Z" style="fill:#0046BB"></path><rect x="105.27" y="194.38" width="1" height="1" style="fill:#0046BB"></rect><circle cx="97.61" cy="124.17" r="27.23" style="fill:#0046BB"></circle><path d="M98.6,123.59l9-7.58a2.34,2.34,0,0,0-.59-.09H88.18a2.27,2.27,0,0,0-.59.09l9,7.58A1.53,1.53,0,0,0,98.6,123.59Z" style="fill:#fff"></path><path d="M99.37,124.5a2.72,2.72,0,0,1-3.53,0l-9.3-7.81a2.14,2.14,0,0,0-.53,1.39v12.18a2.16,2.16,0,0,0,2.17,2.16H107a2.16,2.16,0,0,0,2.16-2.16V118.08a2.13,2.13,0,0,0-.52-1.39Z" style="fill:#fff"></path></g><g id="freepik--character-1--inject-15"><path d="M130.26,197.16c-3,.47-15.27,22.9-15.27,22.9l-5.34.25s-3.66,7.43.41,11.09,11.38-5.38,20.2-17.12S130.26,197.16,130.26,197.16Z" style="fill:#0046BB"></path><path d="M130.87,213.41s0,0,0,0c-.18.28-.39.57-.61.86-3,4-5.84,7.68-8.42,10.66-5,5.76-9.1,8.87-11.78,6.46-4.07-3.66-.4-11.09-.4-11.09l5.1-.24H115s1.23-2.26,3-5.35c3.82-6.66,10.2-17.23,12.26-17.55C130.26,197.16,138.64,202.27,130.87,213.41Z" style="fill:#fff;isolation:isolate;opacity:0.2"></path><path d="M116,225.79v-3.33l-1-.45s-.12-.8-.23-1.94H115s1.23-2.26,3-5.35C117.94,222.46,116,225.79,116,225.79Z" style="isolation:isolate;opacity:0.2"></path><path d="M130.87,213.41s0,0,0,0c-.18.28-.39.57-.61.86-3,4-5.84,7.68-8.42,10.66a29.07,29.07,0,0,1,7.35-16.38A8.36,8.36,0,0,1,130.87,213.41Z" style="isolation:isolate;opacity:0.2"></path><path d="M166.88,388.38c1,4.76,4.76,18.23,4.79,21.8,3,2.93,5.86,2.87,6.9.27s-1.35-21.54-1.35-21.54Z" style="fill:#ff8b7b"></path><path d="M167,336.11c-5.29-34.79-3.4-54.15-5.67-70.52l-35.51-.21c0,6.19,4.6,31.37,20,70.33,8.84,22.45,21.38,60.9,21.38,60.9l11.06-3S175.8,363.2,167,336.11Z" style="fill:#263238"></path><path d="M143,285.31s-1.94,15.87-3.37,33.85q1.94,5.49,4.21,11.46c10-14.78,14.85-35.61,15.69-43.88Z" style="opacity:0.2"></path><path d="M157.29,415.79s11.71-3.45,12.56-8.06a.8.8,0,0,1,1-.67l8.49,1.42a1.13,1.13,0,0,1,.87.76l2.59,8.27-2.4.07-.89-1.18-1,1.24c-13,.41-18.68.45-21.29-.28C156.75,416.21,157.29,415.79,157.29,415.79Z" style="fill:#263238"></path><path d="M179.13,399.7c-2,.81-9.37,1.72-11,1.32s-2.46-6-2.46-6,11.61-3.82,12.8-3.1S179.13,399.7,179.13,399.7Z" style="fill:#0046BB"></path><path d="M179.13,399.7c-2,.81-9.37,1.72-11,1.32s-2.46-6-2.46-6,11.61-3.82,12.8-3.1S179.13,399.7,179.13,399.7Z" style="fill:#fff;opacity:0.30000000000000004"></path><path d="M110.07,385.58c-1.23,4.69-5.16,17.76-6.7,21,1.41,3.95,5.16,4,7.24,2.14s8.51-18.09,8.51-18.09Z" style="fill:#ff8b7b"></path><path d="M141,331.94c10.85-33.33,27.86-47.81,27.39-66.29l-32-.27s-12.44,47-16.35,69-12.4,57.92-12.4,57.92l9,4.37S137.44,357.73,141,331.94Z" style="fill:#263238"></path><path d="M87.16,404.88s12.49,2.28,15.91-1.18a.94.94,0,0,1,1.23-.15l6.82,4.92a1,1,0,0,1,.34,1l-2.42,8-2.2-1-.12-1.37-1.62.59c-11.95-5.4-17-7.85-19-9.61C86.43,405,87.16,404.88,87.16,404.88Z" style="fill:#263238"></path><path d="M116.51,401.91c-2.11-.51-9.3-4.44-10.37-5.69s1.5-6.35,1.5-6.35,10.53,3.48,11.35,4.61S116.51,401.91,116.51,401.91Z" style="fill:#0046BB"></path><path d="M116.51,401.91c-2.11-.51-9.3-4.44-10.37-5.69s1.5-6.35,1.5-6.35,10.53,3.48,11.35,4.61S116.51,401.91,116.51,401.91Z" style="fill:#fff;opacity:0.30000000000000004"></path><path d="M125.84,265.38a38.17,38.17,0,0,1,0-8c0-.84,38.95-2.43,42.19-2.31,4.05.16.6,18.69-2.58,25C137.22,281.89,126.72,270.25,125.84,265.38Z" style="fill:#263238"></path><path d="M126.84,258.15c4.42-.7,33.31-2.47,41.1-1.94a.55.55,0,0,1,.48.37,6.73,6.73,0,0,1,.28,2.51.54.54,0,0,1-.54.51c-2.74.06-17,.4-41.22,2a.56.56,0,0,1-.6-.54c0-.76,0-1.84,0-2.44A.56.56,0,0,1,126.84,258.15Z"></path><path d="M150.66,255.89c.33.59.36,5.29.36,5.29l2.07-.23s.32-4-.06-5.06A10.9,10.9,0,0,0,150.66,255.89Z" style="fill:#263238"></path><path d="M130.21,257.09a17,17,0,0,0,.08,4.85l-1.83.17s-.6-3.79-.31-4.82A4.06,4.06,0,0,1,130.21,257.09Z" style="fill:#263238"></path><path d="M167,197.6c-17.36-2.53-36.78-.44-36.78-.44-8,28.48-4.66,60.56-4.66,60.56l44-.68c-.81-25.17,1.59-42.45,3.3-51.25A7,7,0,0,0,167,197.6Z" style="fill:#0046BB"></path><path d="M113.21,201.54s-4,.46-4,1.18,1,6.53,1.64,7.28a12.49,12.49,0,0,0,2.26,1.74l-3,8.88,5.26,1.84,2.12-9.57s2.13-2.72,1-5.65S113.21,201.54,113.21,201.54Z" style="fill:#ebb376"></path><path d="M113.21,201.54s-4,.46-4,1.18,1,6.53,1.64,7.28a12.49,12.49,0,0,0,2.26,1.74l-3,8.88,5.26,1.84,2.12-9.57s2.13-2.72,1-5.65S113.21,201.54,113.21,201.54Z" style="isolation:isolate;opacity:0.2"></path><path d="M120.64,205.32a.61.61,0,0,1-.58.72l-6.87.39a.8.8,0,0,1-.81-.65l-2.3-13.45a.69.69,0,0,1,.57-.82l6.87-.39a.9.9,0,0,1,.82.74Z" style="fill:#263238"></path><path d="M117.57,191.81l2.33,13.59a.52.52,0,0,1-.5.68l-5.82.33c-.39,0-1.12-.15-1.19-.54l-2.33-13.63c-.06-.38.59-.73,1-.75l5.82-.33A.7.7,0,0,1,117.57,191.81Z" style="fill:#fff;opacity:0.5"></path><path d="M131.26,213.46,125.53,209s-1.93-8-2.45-8.78-7.06.4-7.77.44.5,8.09,1.3,8.84,3.58,1.08,3.58,1.08l6.38,6.63Z" style="fill:#ebb376"></path><path d="M148.84,178c1.12,5.88,4.07,16.31,9.35,18.42,0,0-4.53,6.2-10.55,6.25-3.82,0-5.57-4.43-5.57-4.43,3.93-.4,2.69-3.36-.08-7.18Z" style="fill:#ebb376"></path><path d="M146.05,183.33,142,191.06a18.35,18.35,0,0,1,1.73,2.8c3.79.6,7-5.21,6.29-7.74C149.77,185.08,146.67,184.2,146.05,183.33Z" style="isolation:isolate;opacity:0.2"></path><path d="M136.45,167.73c3.51,1.8,2.48,5.7-4.13,12.43-3.45-3.5-4.86-10.93-2.72-13.11S133.39,166.17,136.45,167.73Z" style="fill:#263238"></path><path d="M151.11,172.06c.62,8,1.38,12.58-2,17.19-5.14,6.92-15.38,4.67-18.37-2.95-2.67-6.84-3.23-18.71,4.05-22.92a10.88,10.88,0,0,1,16.36,8.68Z" style="fill:#ebb376"></path><path d="M139.63,175.87c.09.64-.18,1.21-.6,1.26s-.82-.41-.91-1,.17-1.21.59-1.27S139.5,175.24,139.63,175.87Z" style="fill:#263238"></path><path d="M132.33,176.9c.09.64-.18,1.21-.6,1.26s-.83-.41-.92-1.06.18-1.21.6-1.26S132.24,176.25,132.33,176.9Z" style="fill:#263238"></path><path d="M134.76,176.87a23.34,23.34,0,0,1-2.31,5.92,3.75,3.75,0,0,0,3.16.14Z" style="fill:#d58745"></path><path d="M141.31,173.29a.35.35,0,0,0,.23-.09.39.39,0,0,0,0-.54,3.78,3.78,0,0,0-3.29-1.13.37.37,0,0,0-.3.43v0a.41.41,0,0,0,.45.3h0a3,3,0,0,1,2.59.92A.41.41,0,0,0,141.31,173.29Z" style="fill:#263238"></path><path d="M128.67,174.9a.4.4,0,0,0,.31-.27,3,3,0,0,1,1.89-2,.38.38,0,0,0-.2-.74,3.8,3.8,0,0,0-2.41,2.51.38.38,0,0,0,.24.48h0A.5.5,0,0,0,128.67,174.9Z" style="fill:#263238"></path><path d="M147,165.51c-3.52,1.78-2.51,5.69,4.07,12.43,3.47-3.48,4.91-10.91,2.78-13.08S150.07,164,147,165.51Z" style="fill:#263238"></path><path d="M155.75,177.85a7.53,7.53,0,0,1-2.95,5c-2.14,1.58-4.14-.11-4.34-2.61-.18-2.27.73-5.82,3.25-6.4S156.09,175.41,155.75,177.85Z" style="fill:#ebb376"></path><path d="M153.3,164.38s1-3-4.33-6.4-14.44-1.65-20.61,2.08.47,9.61,3.29,10l-.71-1.05a21.12,21.12,0,0,0,9-.77l-1.75-.75S149.62,166.33,153.3,164.38Z" style="fill:#263238"></path><path d="M136.77,184.75a18.5,18.5,0,0,1,1.23,2.59l.5-.11c2.23-.5,3.1-1.47,3.39-2.39a3.17,3.17,0,0,0-.18-2.16,10.79,10.79,0,0,1-4.18,1.89C137.07,184.69,136.77,184.75,136.77,184.75Z" style="fill:#263238"></path><path d="M137.53,184.57l.39.75c2.1-.48,3.52-1.09,4-1.88a2.94,2.94,0,0,0-.24-.76A10.79,10.79,0,0,1,137.53,184.57Z" style="fill:#fff"></path><path d="M138.5,187.23c2.23-.5,3.1-1.47,3.39-2.39a7.47,7.47,0,0,0-2.37,1A2.79,2.79,0,0,0,138.5,187.23Z" style="fill:#a24e3f"></path><path d="M168.26,198c-4.12.6-15.22,16.58-20.66,19.25s-19-8.47-19-8.47l-5.42,5.7S134,225.72,144.14,226.8s25.76-12.1,28.34-17.2S173.28,197.3,168.26,198Z" style="fill:#0046BB"></path><path d="M168.26,198c-4.12.6-15.22,16.58-20.66,19.25s-19-8.47-19-8.47l-5.42,5.7S134,225.72,144.14,226.8s25.76-12.1,28.34-17.2S173.28,197.3,168.26,198Z" style="fill:#fff;isolation:isolate;opacity:0.2"></path><path d="M134.81,261.88a1.06,1.06,0,0,1-1.06-1l-.16-2.83h0a1.07,1.07,0,0,1,1-1.11l5.17-.33a1,1,0,0,1,.8.28,1.07,1.07,0,0,1,.33.77v3a1.06,1.06,0,0,1-1,1.06l-5,.2Zm-.26-3.88.15,2.82c0,.06.05.11.11.1l5-.19a.11.11,0,0,0,.1-.11v-3l-.14-.58,0,.48-5.17.33a.1.1,0,0,0-.09.11Z" style="fill:#fff"></path></g></svg>