<?xml version="1.0" encoding="utf-8"?>
<!-- Generator: Adobe Illustrator 24.1.1, SVG Export Plug-In . SVG Version: 6.00 Build 0)  -->
<svg version="1.1" id="Layer_1" xmlns="http://www.w3.org/2000/svg" xmlns:xlink="http://www.w3.org/1999/xlink" x="0px" y="0px"
	 viewBox="0 0 627 500" style="enable-background:new 0 0 627 500;" xml:space="preserve">
<style type="text/css">
	.st0{fill:#263238;}
	.st1{fill:#DBDBDB;}
	.st2{fill:#F7A9A0;}
	.st3{fill:#0046BB;}
	.st4{fill:#FFFFFF;}
	.st5{opacity:0.1;enable-background:new    ;}
	.st6{fill:#455A64;}
	.st7{fill:#C7C7C7;}
	.st8{fill:#FF99BA;}
	.st9{opacity:0.2;fill:#263238;enable-background:new    ;}
	.st10{fill:#37474F;}
</style>
<g id="freepik--Table--inject-64">
	<polygon class="st0" points="13.1,475.3 88.5,474.9 163.9,474.7 314.8,474.4 465.5,474.7 541.1,474.9 616.5,475.3 541.1,475.8 
		465.5,476 314.8,476.2 163.9,476 88.5,475.8 	"/>
</g>
<polygon class="st1" points="20.9,475.3 243.8,475.3 199.3,216.8 32.7,216.8 "/>
<path class="st2" d="M214.5,267.5c25.2,56.3,86.1,149.7,113.3,126.6c40.7-34.7,68.3-111.2,79.2-142.2c6.2-17.3-82.3-46.3-87.7-30.7
	c-7.6,22.3-19.8,69.2-26.7,75.7c-3.6,3.5-32.5-37.2-54.5-56.5C206.7,213,206.5,249.5,214.5,267.5z"/>
<path class="st2" d="M429.4,225.9c-7.8,17.6-38.1,47.6-48.1,51.9c-10,4.4-63.2-43.6-62.1-54.9c1.1-11.3,32.9-70.5,50.3-79.6
	C386.9,134.4,437.4,207.6,429.4,225.9z"/>
<path class="st2" d="M323.1,210.7c0,0,1.3-25.2-5.1-46.5c-5.3-18-15.3-43.8-5.8-47c19.6-6.5,44.3,58.1,44.3,58.1s6.4,30.3-12.4,38.7
	C332.4,219,323.1,210.7,323.1,210.7z"/>
<path class="st2" d="M345.1,162.9c1.3,10.2,12.5,2.9,12.5,2.9s-13.6,14.5-8.4,24.5c5.3,9.6,18.5,0.2,19.4-0.4
	c-0.7,0.7-12.9,14.3-6.5,23.8c6.7,9.8,18.5-1.8,19.3-2.5c-0.4,0.9-6.2,13.4,0.4,19.6c11.3,10.5,26.7-21.3,38.7-24.7
	c0,0,8.4,19.4,8.7,20c0,0,15.4-29.8,9.6-45.6c-1.6-4.7-6.4-7.8-11.3-7.1c0,0,6-9.1,1.3-16.7c-2.5-3.8-10.9-3.5-10.9-3.5
	s4.5-7.4-0.2-14c-3.8-5.3-11.6-3.8-11.6-3.8s0.9-9.3-4.5-13.3C390.2,113.7,342.4,141.1,345.1,162.9z"/>
<path class="st0" d="M404.7,135.1c0.2-0.2,0-0.4,0-0.2c-18,5.3-36,16.3-47.6,31.2c-0.4,0.5,0.2,1.3,0.7,0.9
	C372.7,154,386.9,143.6,404.7,135.1z"/>
<path class="st0" d="M418,152.7c0.2-0.2,0-0.4-0.2-0.4c-18.5,5.4-38.5,18.7-49.8,37.2c-0.4,0.7,0,1.6,0.4,0.9
	C376.9,178.7,402,160.3,418,152.7z"/>
<path class="st0" d="M381.3,212.7c11.4-17.4,27.4-29.4,45.6-39.4c0.2-0.2,0-0.4-0.2-0.4c-10.2,2.5-21.1,10-29.1,16.5
	c-7.4,6-13.4,13.8-16.9,22.7C380.5,212.7,381.1,213,381.3,212.7z"/>
<path class="st0" d="M357.3,165.8c-0.4,0.5,0.9,0.5,0.5,1.3c-1.8,2.5-11.4,18.5-7.1,23.6c3.6,4,11.4,2,14.2,0l6.9-4.9l-4.7,7.1
	c-2.2,3.1-3.6,6.5-4.7,10.2c-1.1,3.3-0.7,6.9,0.9,10c1.6,2.9,5.1,4.2,8.2,3.3c3.5-1.1,6.5-3.3,8.9-5.8l6.9-7.3l-4.2,9.1
	c-1.1,2.5-2,5.1-2.5,7.8c-0.5,2.5-0.4,5.3,0.5,7.6c0.9,2.2,3.1,3.6,5.4,3.8c2.7-0.2,5.1-1.3,7.3-2.9c4.5-3.5,8.9-7.4,12.9-11.6
	c2.2-2,4.2-4,6.4-6c2-2,4.5-3.6,7.3-4.7c-2.5,1.3-4.9,3.1-6.7,5.3c-2,2-4,4.4-5.8,6.5c-3.8,4.5-8,8.7-12.5,12.5
	c-2.4,2-5.4,3.5-8.5,3.8c-3.6,0-6.9-2-8.4-5.3c-1.3-2.9-1.6-6.4-0.9-9.4c0.5-3.1,1.5-6,2.7-8.9l2.7,1.8c-2.7,3.3-6.4,5.6-10.4,7.1
	c-2.2,0.7-4.7,0.5-6.9-0.2c-2.2-0.9-4-2.5-5.1-4.4c-2.2-3.8-2.5-8.5-1.1-12.7c1.1-4,2.9-7.6,5.4-11.1l2.2,2
	c-3.6,2.4-12,5.6-18.3,0.2C341.1,184.5,354.8,168.5,357.3,165.8z"/>
<path class="st0" d="M357.8,165.8c-2,0.7-4,1.3-6.2,1.5c-1.6,0.2-3.5-0.5-4.4-2c-0.9-1.6-1.3-3.6-0.9-5.4c0.2-2,0.4-4.2,0.7-6.5
	c-1.5,1.8-2.4,4-2.9,6.2c-0.7,2.4-0.4,5.1,0.9,7.3c0.7,1.1,2,2,3.3,2.5c1.3,0.4,2.5,0.5,3.8,0.2
	C354.2,168.7,356.2,167.4,357.8,165.8z"/>
<path class="st3" d="M314.2,223l91.9,64.1c0,0-54.9,113.9-88.8,113.5s-83-85.5-99.9-122.4s-6.9-68.1,27.4-34.5s46.5,47.4,47.6,47
	C294.5,289.8,314.2,223,314.2,223z"/>
<path class="st3" d="M406.2,287.1c0,0-38.1,79-70.5,105.2c-6.5,5.3-12.7,8.4-18.5,8.4c-34-0.4-83-85.5-99.9-122.4
	c-10.5-22.9-10.5-43.4-1.1-48c5.8-2.7,15.4,0.7,28.5,13.4c34.5,33.8,46.5,47.4,47.6,46.9c2.2-0.9,22-67.6,22-67.6L406.2,287.1z"/>
<path class="st4" d="M349.3,378.8c-1.1,1.3-2.2,2.5-3.5,3.8c-10.4,6.5-22,10.7-34.1,12.5c-3.3,0.4-6.7,0.5-10,0.4l-2.2-1.3
	c4,0.2,8,0.2,12-0.4c4.7-0.5,9.4-1.6,14-3.3l3.5-1.1l3.3-1.5c1.1-0.5,2.2-0.9,3.3-1.5l3.3-1.6C342.6,383.2,346,381.2,349.3,378.8z
	 M279.6,278.6c-10.5,4.7-20,11.4-28.3,19.4c-5.3,5.3-10.2,10.9-14.7,16.9c0.2,0.4,0.4,0.9,0.7,1.3c4.5-6.2,9.4-11.8,14.9-17.1
	c6.9-6.7,14.7-12.5,23.2-16.9l3.3-1.6c0.5-0.4,1.3-0.5,1.8-0.7L279.6,278.6z M358.9,284.4c-8.7-4.4-17.8-7.6-27.2-10.2
	c-0.9-0.2-2-0.5-2.9-0.7c-0.5-0.2-1.3-0.4-2-0.4c-8-1.6-16.2-2-24.2-1.3c-1.3,0.2-2.4,0.4-3.5,0.5c-0.2,0.4-0.4,0.9-0.4,1.3
	c1.3-0.2,2.7-0.4,4-0.5c7.4-0.7,15.1-0.5,22.5,0.9l2,0.4c1.5,0.4,2.7,0.5,4.2,0.9c9.3,2.4,18.3,5.8,27.1,10
	c12.9,6.4,25.6,13.4,37.6,21.4c0.2-0.4,0.4-0.5,0.5-0.9C384.5,297.8,371.8,290.8,358.9,284.4z M368.6,260.8
	c-14.7,0.5-29.1,4.9-41.8,12.4l-1.6,0.9c-3.3,2-6.4,4-9.3,6.4c-15.6,11.8-28,27.1-39.8,42.3c-6,7.6-11.8,15.4-17.8,22.9
	c-0.4,0.5-0.9,1.1-1.3,1.6l0.7,0.9c0.5-0.5,1.1-1.3,1.6-1.8c6.2-7.4,12-15.3,18-22.9c11.8-15.3,24.2-30.3,39.6-42
	c3.3-2.5,6.9-4.9,10.5-7.1c0.5-0.4,0.9-0.5,1.5-0.9c4.2-2.4,8.7-4.4,13.3-6.2l3.5-1.3c1.1-0.4,2.4-0.7,3.5-1.1l3.5-0.9l3.6-0.7
	c4.7-1.1,9.4-1.6,14.3-1.5h0.2L368.6,260.8z M255.6,254.6c-6.4,2.9-12.9,4.9-19.8,6.4l-3.6,0.7c-1.1,0.2-2.4,0.4-3.6,0.4l-3.6,0.4
	l-3.6,0.2c-3.3,0.2-6.7,0.2-10-0.2l0.4,1.3c15.4,1.1,30.7-1.6,44.7-8C256.3,255.2,255.9,254.8,255.6,254.6L255.6,254.6z
	 M229.4,231.9c-6.4,4.4-13.1,8.4-20,12c0,0.5,0,0.9,0,1.5c7.3-3.8,14.3-8.2,21.3-12.9C230.2,232.5,229.8,232.1,229.4,231.9
	L229.4,231.9z"/>
<path class="st0" d="M384.5,297.8c-2.4-2-4.9-4-7.3-6c-5.1-4-10-8-15.1-11.8c-10-7.8-20.2-15.3-30.5-22.7
	c-5.8-4.2-11.6-8.7-17.6-12.5c-0.2,0-0.4,0-0.4,0c0,0.2,0,0.4,0,0.4c4.7,4.2,10,8,14.9,12c4.9,4,9.8,8,14.9,12
	c10,7.8,20.2,15.4,30.3,22.9c2.9,2.2,5.6,4.4,8.7,6.4c1.5,1.1,2.9,2.2,4.5,3.1c1.6,0.9,3.1,1.8,4.7,2.9h0.2v-0.2
	C389.3,302,386.9,299.8,384.5,297.8z"/>
<path class="st0" d="M293.2,288.6c-3.5,9.4-6.4,19.3-8.7,29.1c-1.3,4.9-2.2,9.8-3.1,14.7c-0.9,4.9-1.6,9.8-2,14.7
	c0,0.2,0.2,0.2,0.4,0c1.5-4.7,2.7-9.6,3.8-14.5s2.4-9.8,3.5-14.5c2.2-9.8,4.7-19.4,6.7-29.2c0-0.2,0-0.4-0.2-0.4
	C293.4,288.4,293.2,288.6,293.2,288.6z"/>
<path class="st5" d="M335.7,392.3c-6.5,5.3-12.7,8.4-18.5,8.4c-34-0.4-83-85.5-99.9-122.4c-10.5-22.9-10.5-43.4-1.1-48L335.7,392.3z
	"/>
<path class="st3" d="M283,475.3H62.3C60,470.8,96.1,277.5,170.6,223c16.5-12,45.8-4.4,53.9,7.4C265.4,289.5,283,475.3,283,475.3z"/>
<path class="st4" d="M271.6,389.4c-5.4-2-10.9-4.2-16.2-6.7c-7.4-3.6-14.5-7.4-21.6-11.6l-1.1-0.5c-7.3-4.4-14.5-8.9-21.6-13.4
	l-1.1-0.7l-4.9-3.1c-16.3-10.5-32.5-21.3-49.9-29.6c-8.7-4.4-17.8-7.4-27.2-9.4c-4.7-0.9-9.6-1.1-14.3-0.7c-1.3,0-2.4,0.2-3.6,0.4
	c-0.9,0.2-1.6,0.2-2.5,0.4c0.2-0.4,0.2-0.5,0.4-0.9c0.7-0.2,1.3-0.2,2-0.4c1.3-0.2,2.4-0.4,3.6-0.4c4.9-0.4,9.8,0,14.5,0.7
	c9.6,1.8,18.9,5.1,27.6,9.4c17.6,8.4,33.8,19.3,50.1,29.6l4.7,3.1l1.1,0.7c7.3,4.7,14.5,9.3,22,13.6l1.1,0.5c6.9,4,14,7.8,21.1,11.3
	c5.1,2.4,10.2,4.5,15.4,6.4L271.6,389.4z M251.9,297.3l-0.7,0.7c-14,13.6-24.5,30.3-34.3,46.9c-2,3.6-4.2,7.1-6.4,10.7
	c-0.2,0.4-0.4,0.5-0.5,0.9c-2.7,4.5-5.4,9.1-8.2,13.4c-2.5,3.8-5.1,7.6-7.8,11.4c-0.2,0.4-0.5,0.7-0.7,1.1
	c-2.7,3.8-5.8,7.3-8.9,10.7c-3.3,3.5-6.9,6.7-10.9,9.4l-1.5,1.1c-0.5,0.4-1.1,0.5-1.6,0.9l-3.1,1.8c-2.2,1.1-4.4,2-6.5,2.7
	c-9.1,3.1-18.7,4.5-28.3,4.5c-9.6,0-19.3-1.1-28.5-3.3c-9.1-2-18-4.5-26.7-7.1c0,0.4-0.2,0.5-0.2,0.9c8.9,2.5,17.8,5.3,26.9,7.1
	c9.4,2.2,19.3,3.3,28.9,3.3c9.8,0,19.4-1.6,28.7-4.5c2.4-0.7,4.5-1.8,6.7-2.9l3.3-1.8c0.5-0.4,1.1-0.5,1.6-0.9l1.5-1.1
	c4-2.7,7.6-6,11.1-9.6c3.5-3.6,6.5-7.4,9.4-11.4c0.2-0.4,0.5-0.7,0.7-1.1c2.5-3.5,5.1-7.1,7.3-10.9c2.7-4.4,5.4-8.9,8.2-13.4
	l0.5-0.9l6.4-10.7c9.8-16.5,20.3-33.1,34.1-46.5l0.2-0.2C252.1,298.2,252.1,297.7,251.9,297.3z M262.5,340.3
	c-1.5,1.8-2.7,3.5-4.2,5.3c-6,7.6-12.7,14.5-20,20.9c-1.5,1.1-2.9,2.4-4.4,3.5l-0.9,0.7c-2.2,1.5-4.4,2.9-6.5,4l-1.6,0.9
	c-0.5,0.4-1.1,0.5-1.6,0.7l-3.3,1.5c-2.2,0.7-4.5,1.5-6.9,2c-5.6,1.3-11.4,1.8-17.1,1.8h-1.5c-3.5,0-6.9-0.2-10.2-0.7
	c-9.6-1.3-19.1-3.5-28.2-6.7c-9.1-3.1-18-7.1-26.9-10.9c-8.9-4-18-7.4-27.2-10.4c-2.7-0.7-5.4-1.5-8.4-2l-0.2,0.7
	c2.9,0.5,5.6,1.3,8.4,2c9.3,2.9,18.3,6.4,27.1,10.4c8.9,3.8,17.8,7.6,27.1,10.9c9.1,3.3,18.7,5.6,28.3,6.9c3.3,0.4,6.4,0.5,9.6,0.7
	c0.5,0,0.9,0,1.5,0c6.2,0.2,12.2-0.5,18.2-1.6c2.4-0.5,4.7-1.3,7.1-2l3.5-1.5c0.5-0.2,1.1-0.4,1.6-0.7l1.6-0.9
	c2.5-1.3,4.9-2.7,7.1-4.4l0.9-0.7c1.5-0.9,2.7-2,4-3.1c7.4-6.4,14.2-13.3,20.3-20.9c1.3-1.5,2.4-2.9,3.6-4.5
	C262.7,341.4,262.5,340.9,262.5,340.3z M239.6,260.1c-1.3,0.4-2.5,0.5-3.8,0.9l-3.6,0.7c-1.1,0.2-2.4,0.4-3.6,0.4l-3.6,0.4l-3.6,0.2
	c-4.7,0.4-9.6,0-14.3-0.7c-7.4-1.3-14.7-3.6-21.4-7.1l-1.8-0.9c-1.3-0.7-2.5-1.3-3.8-2c-8.4-4.9-16.2-10.5-23.2-17.1l-0.7,0.7
	c7.3,6.5,15.1,12.4,23.4,17.3c0.9,0.5,1.8,0.9,2.7,1.5l1.8,0.9c7.3,3.8,14.9,6.4,22.9,7.8c11.1,1.6,22.3,0.9,33.2-1.8
	C240,260.8,239.8,260.4,239.6,260.1z M226.7,233.7c-9.6,6.5-20,12-30.7,16.3c-4,1.5-8,2.7-12,3.8l-1.6,0.4
	c-4.7,1.1-9.4,1.8-14.3,2.2l-3.6,0.2c-1.3,0-2.4,0-3.6,0h-3.6l-3.6-0.4c-4.4-0.2-8.7-0.9-12.9-2.2c-0.2,0.4-0.5,0.7-0.7,1.1
	c14.5,3.6,29.6,3.6,44.1-0.2l1.8-0.4c3.6-0.9,7.3-2.2,10.7-3.5c10.9-4.4,21.3-9.8,30.9-16.3L226.7,233.7z M281,456.2
	c-1.8,0-3.8,0.2-5.6,0.2h-0.2h-1.1c-9.3,0.9-18.3,3.6-26.7,8c-6,3.1-11.6,6.7-17.1,10.7h1.1c5.1-3.8,10.5-7.1,16.2-10.2
	c8.4-4.4,17.6-6.9,26.9-7.8h0.7h0.4c1.8,0,3.5-0.2,5.3-0.2C281,456.8,281,456.6,281,456.2z M281.9,464.8c-2-2.5-4-4.9-6.2-7.4
	c-0.2-0.2-0.4-0.5-0.7-0.7l-0.7-0.9c-6.4-7.4-13.6-14-21.8-19.4c-4.2-2.7-8.5-4.9-13.1-6.4c-1.1-0.4-2.4-0.7-3.5-1.1
	c-1.1-0.4-2.4-0.5-3.6-0.7c-2.4-0.4-4.9-0.5-7.3-0.7c-9.8-0.4-19.4,1.3-28.7,4.5c-9.1,3.5-17.8,8-25.8,13.3
	c-14.5,9.3-27.8,20.3-42,30.2h0.5c14.2-9.6,27.2-20.3,41.6-29.6c8.2-5.3,16.7-9.8,25.8-13.1c9.1-3.3,18.7-4.9,28.3-4.5
	c2.4,0.2,4.7,0.4,7.3,0.7c1.3,0.2,2.4,0.5,3.5,0.7c1.1,0.2,2.4,0.7,3.5,1.1c4.5,1.6,8.9,3.6,12.9,6.4c8,5.4,15.3,12,21.4,19.3
	c0.2,0.2,0.2,0.2,0.4,0.4l0.7,0.7c2.5,2.9,5.1,6,7.4,9.1C282.1,465.8,282.1,465.3,281.9,464.8L281.9,464.8z"/>
<path class="st2" d="M141.2,246.6c-45,51.9-105.5,143.9-80.8,164.2c40.7,33.4,159.7,52.7,186.9,55.9c11.8,1.5,35.4-75.6,27.4-85.5
	c-8-10-133.5-17.1-134.4-24.7c-0.5-4.4,18.5-42.5,30.9-89.2C185.3,213.6,153.9,232.1,141.2,246.6z"/>
<path class="st2" d="M254.1,374.9c0,0,36.1-0.2,59.6,0.7c13.1,0.5,35.6,3.5,45.2,8.2c14.2,7.3,69,46.3,59.8,59.8
	c-8.4,12.2-51.2-27.4-51.2-27.4s46.7,36.1,34,49c-12.7,12.9-55-38.1-55-38.1s47.2,38.1,32,49.4c-11.4,8.4-52.5-35.8-52.5-35.8
	s40.3,33.1,28.9,42.3c-12.7,10.2-53-28.2-53-28.2c-33.1,18.5-56.3,13.8-72.7,8.4C225.1,461.9,254.1,374.9,254.1,374.9z"/>
<path class="st0" d="M352.2,402.6c5.6,4,11.4,8.2,16.7,12.7s10.4,9.3,15.3,14.3c11.8,12.4,17.3,21.8,16.9,21.3
	c-9.4-13.1-28.2-29.6-33.4-34.1s-10.4-9.3-15.6-13.8C351.8,402.8,352.2,402.6,352.2,402.6z"/>
<path class="st0" d="M335.5,421.3c6.9,5.4,14.2,10.7,20.9,16.3c6.7,5.6,15.8,14.2,22.2,20.3c0.5,0.5,0,1.5-0.5,0.9
	c-6.5-6-16.3-14.2-22.9-20C348.6,433.2,342.2,427.2,335.5,421.3C335.3,421.5,335.5,421.3,335.5,421.3z"/>
<path class="st0" d="M318.2,435c11.1,7.8,20.7,17.6,30,27.6c0.5,0.5,0,0.5-0.5,0c-9.8-9.3-17.4-16.7-29.6-27.2
	C317.9,435.2,318.1,434.8,318.2,435z"/>
<path class="st0" d="M249,373.8c16.5-0.2,64.8-0.2,81.2,1.1c14.5,1.1,26.5,4.2,38.7,12.4c26.2,17.3,43,37.6,47.2,43.6
	c2.5,3.6,6.2,9.4,2.9,13.6c-4.2,4.9-19.3,0.2-35.2-14.3c-0.5-0.5-0.2-0.9,0.4-0.4c22.5,18.2,31.4,16.2,33.8,12.9
	c1.5-2,0-5.4-1.3-8.2c-2.2-3.8-4.9-7.4-8-10.5c-10.4-11.1-21.8-21.1-34.1-29.8c-13.3-9.8-28.9-15.8-45.4-17.1
	c-16.9-1.5-63.4-0.9-80.1-2.5C248.7,374.3,248.7,373.8,249,373.8z"/>
<path class="st0" d="M404.3,458c-0.9-4.5-4.2-8.5-6.7-12.4c-3.1-4.7-6.7-9.1-10.7-12.9c-0.2-0.2-0.5,0-0.4,0.2
	c3.5,4,6.5,8.2,9.4,12.5c1.5,2.4,2.9,4.9,4.2,7.4c1.3,2.5,2.5,5.3,2,8.2c-1.1,5.3-8,5.3-12,3.8c-2.5-0.9-5.1-2.2-7.4-3.6
	c-3.3-2-6.4-4.4-9.3-6.9c-0.2-0.2-0.9-0.2-0.5,0.2c6,5.6,17.3,17.6,26.7,13.3C403.2,465.8,405.2,461.9,404.3,458z"/>
<path class="st3" d="M254.7,370.3l-43.2,98.1c0,0-150.9-34.1-159.8-62.7s38.5-105.3,81.2-153.3c42-47,48.1-15.1,37.8,21.3
	S143,352,145,355.2S254.7,370.3,254.7,370.3z"/>
<path class="st4" d="M154.8,322.4c-0.2,0.2-0.2,0.5-0.4,0.9c-8.4-4.2-17.3-7.1-26.5-8.9c-4.7-0.9-9.6-1.1-14.3-0.7
	c-1.3,0-2.4,0.2-3.6,0.4s-2.4,0.4-3.5,0.7c-2.4,0.5-4.5,1.5-6.9,2.2c-8.9,3.5-17.1,8.5-24,14.9l1.1-2c6.7-5.8,14.3-10.5,22.7-13.6
	c2.4-0.7,4.5-1.6,7.1-2.2c1.1-0.4,2.4-0.5,3.6-0.7s2.4-0.4,3.6-0.4c4.9-0.4,9.8,0,14.5,0.7C137.3,315.3,146.2,318.2,154.8,322.4z
	 M234.7,370.5l-1.1-0.5l-4.2-2.5l-2.5-0.4c1.8,1.1,3.8,2.4,5.6,3.5l1.1,0.5c5.4,3.3,10.9,6.2,16.5,9.1l0.4-0.9
	C245.2,376.5,240,373.4,234.7,370.5z M205.3,364.5c-1.1,1.8-2.2,3.6-3.3,5.4c-2.5,3.8-5.1,7.6-7.8,11.4c-0.2,0.4-0.5,0.7-0.7,1.1
	c-2.7,3.8-5.8,7.3-8.9,10.7c-3.3,3.5-6.9,6.7-10.9,9.4l-1.5,1.1c-0.5,0.4-1.1,0.5-1.6,0.9l-3.1,1.8c-2.2,1.1-4.4,2-6.5,2.7
	c-9.1,3.1-18.7,4.5-28.3,4.5c-9.6,0-19.3-1.1-28.5-3.3c-9.4-2-18.7-4.7-28.2-7.4c-8.2-2.4-16.5-4.7-25.1-6.4c0,0.4,0,0.5,0,0.9
	c8.4,1.6,16.7,4,24.9,6.4c9.3,2.7,18.5,5.4,28.2,7.4c9.4,2.2,19.3,3.3,28.9,3.3c9.8,0,19.4-1.6,28.7-4.5c2.4-0.7,4.5-1.8,6.7-2.9
	l3.3-1.8c0.5-0.4,1.1-0.5,1.6-0.9l1.5-1.1c4-2.7,7.6-6,11.1-9.6c3.5-3.6,6.5-7.4,9.4-11.4c0.2-0.4,0.5-0.7,0.7-1.1
	c2.5-3.5,5.1-7.1,7.3-10.9c1.3-2,2.4-3.8,3.6-5.8H205.3z M236,368.1c-0.7,0.5-1.5,1.1-2.4,1.6l-0.9,0.7c-2.2,1.5-4.4,2.9-6.5,4
	l-1.6,0.9c-0.5,0.4-1.1,0.5-1.6,0.7l-3.3,1.5c-2.2,0.7-4.5,1.5-6.9,2c-5.6,1.3-11.4,1.8-17.1,1.8h-1.5c-3.5,0-6.9-0.2-10.2-0.7
	c-9.6-1.3-19.1-3.5-28.2-6.7c-9.1-3.1-18-7.1-26.9-10.9c-8.9-4-18-7.4-27.2-10.4c-9.3-2.7-19.3-4.2-28.9-2.2c-3.1,0.5-6,1.6-8.9,3.1
	c-0.2,0.4-0.4,0.7-0.5,1.1c2.9-1.6,6.2-2.7,9.4-3.5c9.4-1.8,19.3-0.4,28.5,2.2c9.3,2.9,18.3,6.4,27.1,10.4
	c8.9,3.8,17.8,7.6,27.1,10.9c9.3,3.3,18.7,5.6,28.3,6.9c3.3,0.4,6.4,0.5,9.6,0.7c0.5,0,0.9,0,1.5,0c6.2,0.2,12.2-0.5,18.2-1.6
	c2.4-0.5,4.7-1.3,7.1-2l3.5-1.5c0.5-0.2,1.1-0.4,1.6-0.7l1.6-0.9c2.5-1.3,4.9-2.7,7.1-4.4l0.9-0.7c0.9-0.7,1.8-1.5,2.9-2.2
	L236,368.1z M156.8,234.6c-0.7-0.7-1.6-1.5-2.4-2l-0.9,0.7l2.5,2.2c6,5.3,12.2,10.2,18.9,14.5c0-0.4,0-0.9,0-1.3
	C168.6,244.4,162.6,239.7,156.8,234.6L156.8,234.6z M167.9,256.4l-3.6,0.2c-1.3,0-2.4,0-3.6,0H157l-3.6-0.4
	c-4.7-0.4-9.6-1.1-14.2-2.5c-2-0.5-4-1.3-6-2l-0.4,0.5l-0.4,0.5c2.2,0.9,4.4,1.6,6.5,2.4c11.4,3.1,23.4,3.8,35.2,2
	c0-0.4,0.2-0.9,0.2-1.3C172.4,256.1,170.2,256.4,167.9,256.4L167.9,256.4z M225.2,427.3c-9.8-0.4-19.4,1.3-28.7,4.5
	c-9.1,3.5-17.8,8-25.8,13.3c-4.5,2.9-8.9,6-13.4,9.3l0.7,0.2l0,0c4.2-3.1,8.5-6,12.9-8.9c8.2-5.3,16.7-9.8,25.8-13.1
	c9.1-3.3,18.7-4.9,28.3-4.5c1.3,0.2,2.5,0.2,3.8,0.4l0.4-0.7C228,427.5,226.5,427.5,225.2,427.3L225.2,427.3z"/>
<path class="st0" d="M194.2,452c1.5-2.7,2.9-5.6,4.4-8.4c2.9-5.6,5.6-11.4,8.5-17.1c5.6-11.4,10.9-22.9,16-34.5
	c2.9-6.5,6.2-13.1,8.7-19.8c0-0.2,0-0.4-0.2-0.4s-0.4,0-0.4,0.2l0,0c-3.1,5.4-5.8,11.3-8.7,17.1c-2.9,5.8-5.8,11.3-8.7,17.1
	c-5.6,11.4-10.9,22.9-16.2,34.3c-1.5,3.3-3.1,6.4-4.4,9.8c-0.7,1.6-1.5,3.3-2.2,5.1c-0.7,1.8-1.1,3.5-1.8,5.1v0.2h0.2l0,0
	C190.9,457.7,192.6,454.9,194.2,452z"/>
<path class="st0" d="M214.7,461.7l-3.1,6.9v0.2h-0.4c-14.3-2.7-28.5-5.8-42.7-9.4s-28.2-7.6-42-12c-14-4.4-27.6-9.6-40.9-15.6
	c-6.7-3.1-13.1-6.5-19.3-10.4c-3.1-2-6-4.2-8.7-6.7c-2.7-2.4-4.9-5.4-6.2-8.9c1.6,3.3,4,6,6.9,8.2c2.9,2.2,6,4.2,9.1,5.8
	c6.4,3.5,12.9,6.7,19.4,9.3c13.4,5.4,27.1,10.2,40.9,14.7s27.6,8.5,41.6,12.5c14,4,28,7.8,42,11.6l-0.4,0.2L214.7,461.7z"/>
<path class="st0" d="M252.9,374.1l1.5-3.8l0.2,0.2c-15.1-0.9-30.3-2.2-45.4-3.8c-15.1-1.6-30.2-3.3-45.2-5.6
	c-3.8-0.5-7.4-1.3-11.3-2c-1.8-0.4-3.8-0.7-5.6-1.3c-0.5-0.2-0.9-0.4-1.5-0.5c-0.4-0.2-0.5-0.2-0.9-0.4c-0.2-0.2-0.4-0.2-0.5-0.4
	c-0.2-0.2-0.4-0.4-0.5-0.5c0-0.2-0.2-0.4-0.2-0.4v-0.2c0-0.7,0-1.5,0.2-2c0-0.5,0.2-1.1,0.4-1.5c2-7.4,4.4-14.7,6.9-21.8
	c4.9-14.3,10.4-28.5,16-42.7c-4.4,14.5-8.9,29.1-13.3,43.6c-2.2,7.3-4.5,14.5-6.2,21.8c-0.2,0.4-0.2,0.9-0.2,1.3s0,0.9,0,0.7
	s0,0,0,0c0-0.2,0-0.2-0.2-0.2c0-0.2-0.4-0.4-0.2-0.4s0,0,0,0l0.4,0.2l1.3,0.4c1.8,0.5,3.6,0.9,5.4,1.1c3.6,0.7,7.4,1.3,11.1,1.8
	c7.4,1.1,14.9,2.2,22.5,3.3l22.5,3.1c15.1,2,30,4.2,45,6.4h0.2l-0.2,0.2L252.9,374.1z"/>
<path class="st0" d="M168.2,296.7c-1.1,2.5-2.4,5.1-4,7.3c-1.5,2.4-3.3,4.4-5.4,6.2c1.5-2.4,2.9-4.7,4.4-6.9
	C164.8,300.9,166.4,298.7,168.2,296.7z"/>
<path class="st2" d="M212.2,263.1c-12.9,3.6-36-15.1-45.4-30.7c-0.7-1.1,2-45.2,1.5-54.1c0-1.8,55.8,10.9,55.8,10.9
	s-4.5,18.7-3.8,34.1C220.3,224.6,224.5,259.7,212.2,263.1z"/>
<path class="st0" d="M167.5,205.9c26.2,18.5,51.6,11.4,52.7,11.1c0.4-9.4,1.6-18.7,3.8-27.8c0,0-55.9-12.7-55.9-10.9
	C168.6,182.5,168,194.3,167.5,205.9z"/>
<path class="st6" d="M224,152.9c1.5,13.1,11.8,22.5,23.2,21.3c11.4-1.3,19.6-12.9,18.2-25.8c-1.5-12.9-11.8-22.5-23.2-21.3
	S222.5,139.8,224,152.9z"/>
<path class="st7" d="M217.3,154.4c1.6,14.5,13.3,25.1,26,23.8s21.8-14.3,20.2-28.9c-1.6-14.5-13.3-25.1-26-23.8
	C224.7,126.7,215.6,139.8,217.3,154.4z"/>
<path class="st2" d="M160.6,112c-6.2,19.6,3.8,76.3,17.8,89c20.2,18.3,53.2,20.3,68.8-3.8c15.3-23.4,0.9-97.2-14.7-108.6
	C209.8,71.3,169.7,83,160.6,112z"/>
<path class="st0" d="M207.6,147.5c0-0.2-0.2,0.2-0.2,0.4c0.9,3.8,1.1,8.4-2,10.2c-0.2,0,0,0.2,0,0.2
	C209.6,156.9,209.1,151.1,207.6,147.5z"/>
<path class="st0" d="M203.6,144.2c-6.2,0.7-4.4,13.1,1.5,12.5C210.9,156.2,208.7,143.6,203.6,144.2z"/>
<path class="st0" d="M229.8,144.5c0-0.2,0.4,0.2,0.4,0.4c0.4,3.8,1.6,8.2,5.3,8.9c0.2,0,0.2,0.2,0,0.2
	C231.1,154,229.6,148.4,229.8,144.5z"/>
<path class="st0" d="M232.5,140c6.2-1.5,8.4,10.9,2.7,12.2S227.4,141.3,232.5,140z"/>
<path class="st0" d="M197.8,139.3c1.6-0.7,3.1-1.5,4.5-2.4c1.6-0.5,3.1-1.8,4.2-3.3c0.4-1.1,0-2.4-0.9-3.1c-2.2-1.1-4.7-0.9-6.5,0.4
	c-2.2,0.9-4,2.7-4.9,4.9c-0.5,1.5,0.2,3.1,1.6,3.6C196.4,139.6,197.1,139.6,197.8,139.3z"/>
<path class="st0" d="M236.5,133.1c-1.6,0-3.5-0.2-5.1-0.5c-1.8,0-3.6-0.5-5.1-1.5c-0.9-0.9-0.9-2.2-0.4-3.3c1.6-1.8,4-2.7,6.4-2.2
	c2.4,0.2,4.7,1.1,6.4,2.7c1.1,1.1,0.9,2.9-0.2,4C238,132.7,237.2,133.1,236.5,133.1z"/>
<path class="st0" d="M209.8,183.4c1.1,0.7,2.2,1.8,3.6,1.8c1.5-0.2,2.7-0.7,4-1.6h0.2v0.2c-0.9,1.6-2.7,2.7-4.5,2.9
	c-1.6-0.2-3.1-1.3-3.5-2.9C209.4,183.6,209.6,183.4,209.8,183.4z"/>
<path class="st0" d="M212.2,171.4c2.4,2.7,6,4.4,9.6,4.5c1.6,0,3.3-0.2,4.7-0.5c0.4,0,0.5-0.2,0.9-0.2s0.5-0.2,0.9-0.2
	c0.4-0.2,0.7-0.5,0.7-0.9l0,0c0-0.2,0-0.2,0-0.4l0,0v-0.4c-0.4-2.9-1.3-7.4-1.3-7.4c1.1,0.4,7.1,2,6.7,0.5
	c-2.7-12.7-5.6-26.7-11.1-38.7c0-0.2-0.4-0.2-0.5-0.2c-0.2,0-0.2,0.2-0.2,0.4c2.2,12.4,6.4,24,8.7,36.3c-2.2-0.5-4.2-0.9-6.4-0.9
	c-0.4,0.2,2,8.5,2,9.8v0.2c-4.9,1.5-8.9,0.4-14.2-2.2C212.2,170.9,211.8,171.1,212.2,171.4z"/>
<path class="st0" d="M224.5,174.1c-1.3,2.4-3.1,4.4-5.4,5.8c-1.3,0.7-2.7,1.1-4.2,0.9c-3.3-0.4-3.6-3.1-3.5-5.6
	c0.2-1.3,0.4-2.5,0.9-3.8C215.8,173.6,220.2,174.5,224.5,174.1z"/>
<path class="st8" d="M219.1,180c-1.3,0.7-2.7,1.1-4.2,0.9c-3.3-0.4-3.6-3.1-3.5-5.6C214.7,175.1,218.2,176.7,219.1,180z"/>
<path class="st9" d="M169.9,132c-2.2,5.6-6.9,18.9-9.4,19.8c-2.5-18.3-2.5-35.1,2-45.2c1.8-4.2,4.5-8,7.8-11.3
	C170.6,100.2,172.2,126.2,169.9,132z"/>
<path class="st0" d="M219.1,105.9c-3.1,5.4-8.9,8.9-15.3,9.1s-12.5-3.1-16-8.4c0,0-0.2-0.2-0.2,0c0,0-0.2,0.2,0,0.2
	c3.3,6,9.4,9.8,16.3,9.8c6.7-0.4,12.7-4.4,15.6-10.2c0-0.2,0-0.4,0-0.4C219.3,105.7,219.1,105.7,219.1,105.9z"/>
<path class="st0" d="M256.9,76.6c-2.5-4.9-6.9-8.5-12-10.5c-7.1-2.7-14.2-0.9-21.3,1.1c0,0-0.2,0-0.2,0.2s0,0.2,0.2,0.2
	c6-1.6,12.2-3.1,18.2-1.3c5.1,1.5,9.4,4.7,12.4,9.1c6,9.3,4.2,21.6-4.2,28.9c-4.9,4-11.1,5.8-17.3,4.9c-0.2,0-0.4,0.4,0,0.4
	c12.4,2.2,24.2-6.2,26.2-18.7C259.9,86.1,259,81,256.9,76.6L256.9,76.6z"/>
<path class="st0" d="M159,123.3c0,0-13.1-16.9-6.7-29.1c3.6-6.9,19.3-8.9,19.3-8.9s3.6-8,16-13.3c12.4-5.3,29.1-2.2,29.1-2.2
	s11.1-9.3,23.8-4.7c17.8,6.4,20,31.2,5.1,42c-10.4,7.4-27.6,0.2-27.6,0.2c-1.5,0.4-15.1,12.4-28.9,0.7c0,0-8,10-17.3,5.6
	C169.7,119.3,164.8,123.1,159,123.3z"/>
<path class="st2" d="M172.4,158.2c0,0-13.1-18.2-21.3-13.4c-8.2,4.7,1.8,31.1,11.6,34.5c5.1,2.2,10.9,0,13.1-5.1
	c0-0.2,0.2-0.2,0.2-0.4L172.4,158.2z"/>
<path class="st0" d="M154.2,152.2c-0.2,0-0.2,0.2,0,0.2c6.9,2.7,10.5,8.9,13.3,15.4c-2-2.5-4.9-3.8-8.2-1.5c-0.2,0.2,0,0.4,0.2,0.4
	c2.4-0.7,5.1,0,6.7,2.2c1.3,1.6,2.4,3.5,3.3,5.4c0.4,0.5,1.5,0.2,1.1-0.4v-0.2C170.6,165.1,163.5,152.9,154.2,152.2z"/>
<path class="st7" d="M161.5,145.5c0,0-7.1-28.2-1.6-45.4c6.2-19.3,29.2-38,56.5-30c0,0-30.3,3.8-45,29.2
	c-6.7,11.6-0.2,45.2-0.2,45.2L161.5,145.5z"/>
<path class="st7" d="M190.9,154.9c2.7,14.5-5.3,28.2-18,30.7c-12.7,2.5-25.2-7.3-28.2-21.8s5.3-28.2,18-30.7
	C175.5,130.6,188,140.4,190.9,154.9z"/>
<path class="st6" d="M184,155.4c2.5,13.1-4.7,25.4-16.2,27.6c-11.4,2.2-22.7-6.5-25.2-19.6c-2.5-13.1,4.7-25.4,16.2-27.6
	S181.5,142.4,184,155.4z"/>
<path class="st4" d="M398.2,69c-3.3,31.1-31.1,53.8-62.3,50.5c-12.2-1.3-23.4-6.4-32.5-14.7l-28.3,4.2l14.2-24.5
	c-11.8-29.1,2.2-62.1,31.2-73.7c29.1-11.8,62.1,2.2,73.7,31.2C397.8,50.5,399.3,59.7,398.2,69L398.2,69z"/>
<path class="st0" d="M398.2,69c-1.1,10.5-5.1,20.3-11.4,28.7c-1.6,2-3.3,4-5.1,5.8c-1.8,1.8-3.8,3.5-6,5.1
	c-4.2,3.1-8.7,5.8-13.6,7.6c-4.9,2-10,3.1-15.3,3.6c-2.5,0.2-5.3,0.4-7.8,0.2c-2.5,0-5.3-0.4-7.8-0.7c-10.5-2-20.2-6.7-28-13.8
	l0.7,0.2l-28.3,4.4l-2,0.4l1.1-1.8l14.2-24.5V85c-6.7-16.5-5.4-35.1,3.5-50.5c4.4-7.6,10.5-14,17.8-18.9
	c14.7-9.8,33.1-12.2,49.8-6.7c8.2,2.7,15.6,7.4,21.8,13.4C393.8,34.3,400,51.5,398.2,69z M398.2,69c3.3-30.9-19.1-58.5-49.8-61.8
	c-4.7-0.5-9.6-0.4-14.5,0.4c-8.4,1.3-16.3,4.4-23.4,9.3c-6.9,4.9-12.7,11.1-16.9,18.5c-4.2,7.3-6.7,15.6-7.3,24
	c-0.5,8.4,0.9,16.9,4,24.7l0.2,0.5l-0.4,0.4l-14.3,24.5l-1.1-1.5l28.3-4h0.4l0.4,0.2c7.6,7.1,16.9,12,27.2,14
	c2.5,0.5,5.1,0.9,7.6,0.9c2.5,0.2,5.1,0.2,7.8,0c5.3-0.4,10.4-1.5,15.1-3.3c4.9-1.8,9.4-4.2,13.6-7.4c4.2-3.1,8-6.7,11.1-10.9
	C392.9,89.3,397.1,79.3,398.2,69z"/>
<circle class="st0" cx="366.4" cy="64.8" r="6.9"/>
<circle class="st0" cx="341.9" cy="64.8" r="6.9"/>
<path class="st0" d="M324.1,64.8c0,3.8-3.1,6.9-6.9,6.9s-6.9-3.1-6.9-6.9c0-3.8,3.1-6.9,6.9-6.9l0,0C321,57.9,324.1,61,324.1,64.8z"
	/>
<rect x="285.6" y="470.9" class="st6" width="12.2" height="8"/>
<rect x="301.4" y="470.4" class="st6" width="12.2" height="8"/>
<rect x="317" y="469.8" class="st6" width="12.2" height="8"/>
<rect x="332.8" y="469.3" class="st6" width="12.2" height="8"/>
<rect x="348.6" y="468.8" class="st6" width="12.2" height="8"/>
<rect x="364.4" y="468.2" class="st6" width="12.2" height="8"/>
<rect x="380" y="467.7" class="st6" width="12.2" height="8"/>
<rect x="395.8" y="467.1" class="st6" width="12.2" height="8"/>
<rect x="411.6" y="466.8" class="st6" width="12.2" height="8"/>
<polygon class="st10" points="426.7,483.3 282.5,483.3 282.5,473.7 426.7,469.7 "/>
<polygon class="st6" points="567.4,445.3 329.5,445.3 367.3,268.1 605.2,268.1 "/>
<polygon class="st10" points="576.2,445.3 338.2,445.3 376,268.1 614.1,268.1 "/>
<path class="st0" d="M496.8,346.5c-1.5,8.4-8.5,14.3-17.1,14.7c-6.7,0.2-12.4-5.1-12.7-11.8c0-0.9,0-2,0.2-2.9
	c1.5-8.4,8.5-14.5,17.1-14.7c6.7-0.2,12.4,5.1,12.7,11.8C497,344.5,497,345.4,496.8,346.5z"/>
<polygon class="st6" points="509,491.6 391.8,491.6 391.8,482.6 509,478.7 "/>
<polygon class="st6" points="540.7,491.6 477.9,491.6 439.9,392.3 503,392.3 "/>
<polygon class="st0" points="551.1,491.6 488.2,491.6 450.5,392.3 513.3,392.3 "/>
<path class="st10" d="M278.1,494H157.3c-10.4,0,4.5-29.2,42.1-40.5S289.9,482.9,278.1,494z"/>
<path class="st0" d="M230.7,494c0-3.3,0.7-6.7,1.6-9.8c0.9-3.3,2.4-6.4,4-9.3c1.8-2.9,3.8-5.4,6.4-7.8c2.5-2.2,5.4-4,8.5-5.3
	c-1.3,1.1-2.7,1.8-4,2.9l-1.8,1.6l-1.6,1.8c-2.2,2.4-4.2,4.9-5.8,7.6c-1.6,2.7-3.1,5.6-4.4,8.7C232.5,487.6,231.4,490.9,230.7,494z"
	/>
<path class="st0" d="M245,466c7.3,2.4,14,5.6,20.2,10c3.1,2.2,6,4.7,8.4,7.6c2.5,2.9,4.2,6.5,4.5,10.4c-1.1-3.6-2.9-6.7-5.6-9.3
	c-2.5-2.5-5.4-4.9-8.4-7.1c-2.9-2.2-6.2-4.2-9.3-6C251.8,469.8,248.3,467.8,245,466z"/>
</svg>
