<svg width="18" height="19" viewBox="0 0 18 19" fill="none" xmlns="http://www.w3.org/2000/svg">
<path d="M8.58331 18.9871C7.96895 18.9871 7.3584 18.9909 6.74404 18.9871C6.01213 18.9795 5.5874 18.5547 5.61773 17.8341C5.6329 17.4586 5.6822 17.0793 5.76563 16.7114C5.81872 16.4762 5.93249 16.2487 6.05385 16.0363C6.1752 15.8163 6.3724 15.6608 6.61131 15.5735C6.87298 15.4749 7.1081 15.4711 7.3584 15.6494C8.18512 16.2411 9.02321 16.2183 9.85372 15.638C10.1874 15.4067 10.6577 15.4977 10.9876 15.8504C11.2758 16.1576 11.4086 16.5369 11.4768 16.939C11.5261 17.2386 11.5527 17.542 11.5565 17.8417C11.5678 18.5737 11.1621 18.9795 10.4264 18.9833C9.80822 18.9909 9.19766 18.9871 8.58331 18.9871Z" fill="#757575"/>
<path d="M10.1981 14.1248C10.1905 15.0351 9.47754 15.7367 8.5598 15.7292C7.68758 15.7216 6.97083 14.9934 6.97462 14.1248C6.97842 13.2107 7.70275 12.5015 8.62806 12.5128C9.4965 12.5204 10.2019 13.2486 10.1981 14.1248Z" fill="#757575"/>
<path d="M9.71662 10.3092C9.42082 10.2978 9.02642 10.1461 8.66236 9.95265C7.43745 9.29269 6.56143 8.3331 6.20117 6.9563C6.07981 6.48978 6.21254 6.08015 6.50076 5.71603C6.6752 5.49605 6.93308 5.4695 7.18716 5.46191C7.24025 5.46191 7.31231 5.53777 7.34644 5.59846C7.52088 5.88292 7.68016 6.17876 7.85081 6.46323C7.92666 6.58839 7.9077 6.6908 7.80531 6.78562C7.67258 6.9032 7.53985 7.01698 7.40332 7.13077C7.27059 7.24076 7.25542 7.35455 7.33885 7.51005C7.7105 8.20414 8.23763 8.73894 8.93162 9.11064C9.10606 9.20546 9.235 9.19787 9.36015 9.03857C9.46254 8.90961 9.57252 8.78824 9.68249 8.66308C9.78109 8.55309 9.88348 8.53791 10.0162 8.61756C10.2968 8.78824 10.5813 8.94754 10.8695 9.10305C10.9946 9.17132 11.0325 9.26235 11.0136 9.39889C10.9415 9.94506 10.4675 10.313 9.71662 10.3092Z" fill="#757575"/>
<path d="M8.59864 3.7325C8.25733 3.7325 7.91602 3.73629 7.57472 3.7325C7.07793 3.72492 6.85797 3.50872 6.8921 3.01945C6.91107 2.73877 6.97174 2.4619 7.04759 2.18881C7.10447 1.98779 7.25237 1.84366 7.45716 1.7716C7.60885 1.71471 7.74537 1.72608 7.88568 1.8247C8.33697 2.1395 8.79963 2.1433 9.26608 1.84745C9.53533 1.67678 9.79321 1.70333 9.98282 1.95365C10.2938 2.36328 10.3583 2.84497 10.2597 3.33805C10.2104 3.58079 10.0132 3.70974 9.77425 3.71733C9.38364 3.7325 8.99303 3.72112 8.59864 3.72112C8.59864 3.72112 8.59864 3.72492 8.59864 3.7325Z" fill="#757575"/>
<path d="M1.71139 9.73624C1.35871 9.73624 1.00602 9.74003 0.649547 9.73624C0.217225 9.73245 -0.0178972 9.49729 0.00106425 9.05732C0.0124411 8.81458 0.0541564 8.56804 0.114833 8.33289C0.152756 8.19255 0.239979 8.05601 0.334786 7.94222C0.520609 7.72224 0.778485 7.69189 1.02119 7.8474C1.48385 8.14704 1.93893 8.14704 2.40159 7.8474C2.6405 7.69189 2.90596 7.71465 3.0842 7.94602C3.20555 8.10152 3.29657 8.29116 3.34587 8.48081C3.40275 8.68562 3.41413 8.90561 3.41413 9.11801C3.41413 9.52005 3.19038 9.73245 2.7884 9.74003C2.60637 9.74383 2.42434 9.74003 2.23852 9.74003C2.06407 9.73624 1.88583 9.73624 1.71139 9.73624Z" fill="#757575"/>
<path d="M15.6895 9.73673C15.3292 9.73673 14.9689 9.74052 14.6087 9.73673C14.1991 9.73294 13.9602 9.51295 13.9829 9.10332C14.0019 8.79231 14.0588 8.4775 14.1536 8.18166C14.1991 8.03753 14.3508 7.90857 14.4835 7.81375C14.6352 7.70755 14.8021 7.70755 14.9727 7.83272C15.4126 8.14752 15.8715 8.15511 16.3379 7.86685C16.6565 7.66962 16.9751 7.72652 17.1419 8.06787C17.2709 8.32579 17.3088 8.62922 17.3808 8.91368C17.3998 8.98575 17.3922 9.0654 17.3884 9.14125C17.3732 9.50157 17.1495 9.72535 16.7854 9.73673C16.6034 9.74432 16.4176 9.74052 16.2356 9.74052C16.0535 9.73673 15.8715 9.73673 15.6895 9.73673Z" fill="#757575"/>
<path d="M10.21 15.1863C10.2972 14.9663 10.3958 14.7653 10.4451 14.5529C10.4944 14.3405 10.4944 14.1167 10.5133 13.9346C10.7523 13.9346 11.0063 13.9688 11.2453 13.9233C11.4955 13.8778 11.7345 13.764 11.9696 13.6616C12.1971 13.5592 12.364 13.5781 12.4474 13.8133C12.5422 14.0902 12.5839 14.386 12.637 14.6743C12.656 14.7729 12.6446 14.8753 12.6446 14.9777C12.6484 15.4366 12.4133 15.6907 11.9506 15.7211C11.7572 15.7325 11.56 15.7287 11.3628 15.7249C11.3135 15.7249 11.249 15.6983 11.2149 15.6642C10.9419 15.3797 10.6044 15.228 10.21 15.1863Z" fill="#757575"/>
<path d="M7.00182 15.1826C6.5695 15.2243 6.23198 15.3836 5.95135 15.6718C5.9286 15.6984 5.88689 15.7249 5.85655 15.7249C5.56833 15.7136 5.27253 15.7249 4.9919 15.6718C4.68473 15.6112 4.52924 15.3798 4.54062 15.0612C4.552 14.735 4.58613 14.4088 4.62026 14.0826C4.63164 13.9916 4.67335 13.9006 4.71507 13.8171C4.83263 13.5972 4.98053 13.5479 5.19669 13.6692C5.65556 13.9233 6.12959 14.0485 6.67189 13.8665C6.64155 14.3406 6.73636 14.7691 7.00182 15.1826Z" fill="#757575"/>
<path d="M5.07522 12.5011C5.07143 11.9056 5.54925 11.4277 6.14464 11.4277C6.74003 11.4277 7.22165 11.9056 7.22165 12.4973C7.22165 13.0814 6.72866 13.5669 6.13706 13.5631C5.55305 13.5631 5.07522 13.0852 5.07522 12.5011Z" fill="#757575"/>
<path d="M9.96298 12.4745C9.97057 11.8904 10.4484 11.4201 11.0362 11.4239C11.6316 11.4276 12.1094 11.9093 12.098 12.501C12.0905 13.1003 11.6126 13.5668 11.0134 13.5592C10.4218 13.5592 9.9554 13.0737 9.96298 12.4745Z" fill="#757575"/>
<path d="M9.50798 0.917973C9.51177 1.43001 9.11358 1.84343 8.60921 1.84722C8.07828 1.85481 7.66113 1.44897 7.66113 0.925559C7.66113 0.417317 8.06691 0.00768938 8.57128 0.000103676C9.08703 -0.00748202 9.50419 0.402146 9.50798 0.917973Z" fill="#757575"/>
<path d="M0.786133 6.92973C0.789925 6.4139 1.19949 6.01186 1.72283 6.01565C2.23479 6.01944 2.63677 6.42528 2.63677 6.93352C2.63677 7.44556 2.21962 7.86656 1.70766 7.86277C1.1957 7.86277 0.786133 7.44935 0.786133 6.92973Z" fill="#757575"/>
<path d="M16.5998 6.93743C16.5998 7.45326 16.1826 7.87047 15.6707 7.86668C15.1625 7.86288 14.7415 7.43429 14.7491 6.92984C14.7567 6.4216 15.1587 6.02335 15.6707 6.01956C16.1978 6.01577 16.5998 6.41781 16.5998 6.93743Z" fill="#757575"/>
<path d="M10.9043 1.22475C12.1102 1.20199 15.1517 4.01628 15.0796 5.08208C14.1998 3.24254 12.808 1.95677 10.9043 1.22475Z" fill="#757575"/>
<path d="M2.05664 5.19662C2.16662 4.03601 4.74158 1.43791 5.79963 1.41895C4.08931 2.21924 2.84165 3.47846 2.05664 5.19662Z" fill="#757575"/>
<path d="M15.189 10.4531C15.1777 11.151 13.5128 13.366 12.9326 13.4533C13.9338 12.6416 14.6771 11.6365 15.189 10.4531Z" fill="#757575"/>
<path d="M2.07136 10.6123C2.5416 11.625 3.18629 12.5163 4.02059 13.2635C3.52001 13.1573 2.05998 11.1661 2.07136 10.6123Z" fill="#757575"/>
</svg>
