<svg width="37" height="41" viewBox="0 0 37 41" fill="none" xmlns="http://www.w3.org/2000/svg">
<path d="M18.4575 40.4732C17.1645 40.4732 15.8795 40.4811 14.5865 40.4732C13.0462 40.4572 12.1522 39.5632 12.2161 38.0465C12.248 37.2562 12.3518 36.458 12.5274 35.6837C12.6391 35.1888 12.8785 34.7098 13.1339 34.2628C13.3893 33.7998 13.8044 33.4725 14.3072 33.2889C14.8579 33.0814 15.3528 33.0734 15.8795 33.4486C17.6194 34.6938 19.3833 34.646 21.1312 33.4246C21.8336 32.9377 22.8233 33.1293 23.5176 33.8717C24.1242 34.5182 24.4036 35.3165 24.5472 36.1626C24.651 36.7932 24.7069 37.4318 24.7148 38.0625C24.7388 39.6031 23.8848 40.4572 22.3364 40.4652C21.0354 40.4811 19.7505 40.4732 18.4575 40.4732Z" fill="#FAFAFA"/>
<path d="M21.8574 30.2395C21.8414 32.1553 20.3409 33.6321 18.4095 33.6161C16.5738 33.6001 15.0653 32.0675 15.0733 30.2395C15.0813 28.3157 16.6057 26.823 18.5531 26.847C20.3808 26.8629 21.8654 28.3956 21.8574 30.2395Z" fill="#FAFAFA"/>
<path d="M20.8438 22.2094C20.2213 22.1855 19.3912 21.8662 18.625 21.4591C16.047 20.0701 14.2033 18.0506 13.4451 15.1529C13.1897 14.1711 13.4691 13.309 14.0756 12.5426C14.4428 12.0797 14.9855 12.0238 15.5203 12.0078C15.632 12.0078 15.7836 12.1675 15.8555 12.2952C16.2226 12.8939 16.5578 13.5165 16.917 14.1152C17.0766 14.3786 17.0367 14.5941 16.8212 14.7937C16.5419 15.0412 16.2625 15.2806 15.9752 15.5201C15.6958 15.7516 15.6639 15.9911 15.8395 16.3184C16.6217 17.7792 17.7311 18.9047 19.1917 19.687C19.5588 19.8865 19.8302 19.8706 20.0936 19.5353C20.309 19.2639 20.5405 19.0085 20.772 18.745C20.9795 18.5135 21.195 18.4816 21.4743 18.6492C22.0649 19.0085 22.6635 19.3437 23.2701 19.671C23.5335 19.8147 23.6133 20.0063 23.5734 20.2936C23.4218 21.4431 22.4241 22.2174 20.8438 22.2094Z" fill="#FAFAFA"/>
<path d="M18.4894 8.36807C17.7711 8.36807 17.0528 8.37605 16.3345 8.36807C15.2889 8.3521 14.826 7.8971 14.8978 6.86736C14.9378 6.27665 15.0655 5.69393 15.2251 5.11919C15.3448 4.69612 15.6561 4.39279 16.0871 4.24112C16.4063 4.12138 16.6936 4.14533 16.989 4.35287C17.9387 5.01542 18.9124 5.0234 19.8942 4.40077C20.4608 4.04156 21.0036 4.09743 21.4026 4.62428C22.0571 5.48639 22.1928 6.50016 21.9853 7.53789C21.8815 8.04877 21.4665 8.32017 20.9636 8.33614C20.1416 8.36807 19.3195 8.34412 18.4894 8.34412C18.4894 8.34412 18.4894 8.3521 18.4894 8.36807Z" fill="#FAFAFA"/>
<path d="M3.99537 21.0037C3.25311 21.0037 2.51084 21.0117 1.7606 21.0037C0.85073 20.9957 0.355888 20.5008 0.395795 19.5749C0.419738 19.064 0.507533 18.5451 0.635234 18.0502C0.715047 17.7548 0.898618 17.4675 1.09815 17.228C1.48924 16.765 2.03196 16.7012 2.54277 17.0284C3.51649 17.6591 4.47425 17.6591 5.44797 17.0284C5.95079 16.7012 6.50948 16.7491 6.88461 17.236C7.14001 17.5633 7.33156 17.9624 7.43532 18.3615C7.55504 18.7926 7.57898 19.2556 7.57898 19.7026C7.57898 20.5487 7.10808 20.9957 6.26206 21.0117C5.87896 21.0197 5.49586 21.0117 5.10477 21.0117C4.73763 21.0037 4.36251 21.0037 3.99537 21.0037Z" fill="#FAFAFA"/>
<path d="M33.4146 21.004C32.6563 21.004 31.8981 21.012 31.1399 21.004C30.2779 20.996 29.7751 20.5331 29.823 19.6709C29.8629 19.0164 29.9826 18.3538 30.1821 17.7312C30.2779 17.4279 30.5971 17.1565 30.8765 16.9569C31.1957 16.7334 31.5469 16.7334 31.9061 16.9968C32.8319 17.6594 33.7977 17.6753 34.7794 17.0687C35.4498 16.6536 36.1202 16.7733 36.4714 17.4917C36.7428 18.0345 36.8226 18.6731 36.9742 19.2718C37.0141 19.4235 36.9982 19.5911 36.9902 19.7508C36.9583 20.5091 36.4874 20.9801 35.7212 21.004C35.338 21.02 34.947 21.012 34.5639 21.012C34.1808 21.004 33.7977 21.004 33.4146 21.004Z" fill="#FAFAFA"/>
<path d="M21.8813 32.4748C22.0649 32.0118 22.2724 31.5887 22.3762 31.1417C22.4799 30.6947 22.4799 30.2237 22.5199 29.8406C23.0227 29.8406 23.5574 29.9124 24.0602 29.8166C24.587 29.7208 25.0898 29.4813 25.5847 29.2658C26.0636 29.0503 26.4147 29.0902 26.5903 29.5851C26.7899 30.1678 26.8777 30.7905 26.9894 31.3971C27.0293 31.6047 27.0054 31.8202 27.0054 32.0357C27.0133 33.0016 26.5185 33.5364 25.5448 33.6003C25.1377 33.6243 24.7227 33.6163 24.3077 33.6083C24.2039 33.6083 24.0682 33.5524 23.9964 33.4806C23.4217 32.8819 22.7114 32.5626 21.8813 32.4748Z" fill="#FAFAFA"/>
<path d="M15.1293 32.4668C14.2195 32.5546 13.5091 32.8898 12.9185 33.4965C12.8706 33.5524 12.7828 33.6083 12.719 33.6083C12.1124 33.5843 11.4899 33.6083 10.8992 33.4965C10.2528 33.3688 9.92552 32.8818 9.94947 32.2113C9.97341 31.5248 10.0452 30.8383 10.1171 30.1518C10.141 29.9603 10.2288 29.7687 10.3166 29.5931C10.564 29.1301 10.8753 29.0263 11.3302 29.2817C12.296 29.8166 13.2936 30.08 14.435 29.6968C14.3711 30.6946 14.5707 31.5967 15.1293 32.4668Z" fill="#FAFAFA"/>
<path d="M11.0748 26.8235C11.0668 25.5702 12.0724 24.5645 13.3255 24.5645C14.5786 24.5645 15.5922 25.5702 15.5922 26.8155C15.5922 28.0448 14.5546 29.0666 13.3095 29.0586C12.0804 29.0586 11.0748 28.0528 11.0748 26.8235Z" fill="#FAFAFA"/>
<path d="M21.3625 26.7669C21.3785 25.5376 22.3841 24.5477 23.6212 24.5557C24.8743 24.5637 25.8799 25.5775 25.856 26.8227C25.84 28.084 24.8344 29.0658 23.5733 29.0498C22.3282 29.0498 21.3465 28.0281 21.3625 26.7669Z" fill="#FAFAFA"/>
<path d="M20.405 2.44468C20.4129 3.52231 19.5749 4.3924 18.5134 4.40038C17.396 4.41635 16.5181 3.56222 16.5181 2.46064C16.5181 1.39099 17.3721 0.528878 18.4336 0.512914C19.519 0.496949 20.397 1.35906 20.405 2.44468Z" fill="#FAFAFA"/>
<path d="M2.04785 15.0967C2.05583 14.0111 2.91782 13.1649 4.01924 13.1729C5.09671 13.1809 5.94273 14.035 5.94273 15.1047C5.94273 16.1823 5.06479 17.0684 3.98731 17.0604C2.90983 17.0604 2.04785 16.1903 2.04785 15.0967Z" fill="#FAFAFA"/>
<path d="M35.3302 15.1125C35.3302 16.1981 34.4522 17.0762 33.3747 17.0682C32.3052 17.0602 31.4193 16.1582 31.4353 15.0965C31.4512 14.0269 32.2973 13.1887 33.3747 13.1807C34.4841 13.1727 35.3302 14.0189 35.3302 15.1125Z" fill="#FAFAFA"/>
<path d="M23.3423 3.09111C25.8803 3.04321 32.2814 8.96622 32.1297 11.2093C30.278 7.33779 27.3489 4.63173 23.3423 3.09111Z" fill="#FAFAFA"/>
<path d="M4.72168 11.4486C4.95314 9.00596 10.3725 3.53796 12.5992 3.49805C8.99967 5.18235 6.37381 7.83254 4.72168 11.4486Z" fill="#FAFAFA"/>
<path d="M32.3607 22.5127C32.3368 23.9815 28.833 28.6432 27.6118 28.8268C29.7189 27.1186 31.2832 25.0032 32.3607 22.5127Z" fill="#FAFAFA"/>
<path d="M4.75356 22.8477C5.74324 24.979 7.10006 26.8549 8.85595 28.4274C7.80242 28.2039 4.72961 24.0131 4.75356 22.8477Z" fill="#FAFAFA"/>
</svg>
