<?xml version="1.0" encoding="utf-8"?>
<!-- Generator: Adobe Illustrator 24.1.1, SVG Export Plug-In . SVG Version: 6.00 Build 0)  -->
<svg version="1.1" id="Layer_1" xmlns="http://www.w3.org/2000/svg" xmlns:xlink="http://www.w3.org/1999/xlink" x="0px" y="0px"
	 viewBox="0 0 70 70" style="enable-background:new 0 0 70 70;" xml:space="preserve">
<style type="text/css">
	.st0{fill:#F5F5F5;}
	.st1{fill:#0045BA;}
</style>
<circle id="Ellipse_42" class="st0" cx="35" cy="35" r="35"/>
<g>
	<g>
		<line class="st1" x1="28.2" y1="33.7" x2="28.2" y2="33.7"/>
		<line class="st1" x1="41.8" y1="33.7" x2="41.8" y2="33.7"/>
		<g>
			<path class="st1" d="M35,15c1.3-0.7,2.1-2.1,2.1-3.7s-0.9-3-2.1-3.7"/>
			<path class="st1" d="M35,15c-1.3-0.7-2.1-2.1-2.1-3.7s0.9-3,2.1-3.7"/>
		</g>
		<g>
			<path class="st1" d="M28.5,19.5L28.5,19.5c0.9-1.2,1.2-2.8,0.6-4.2c-0.6-1.5-1.9-2.4-3.4-2.6"/>
			<path class="st1" d="M25.7,12.7c-0.9,1.2-1.2,2.8-0.6,4.2c0.6,1.5,1.9,2.4,3.4,2.6"/>
		</g>
		<g>
			<path class="st1" d="M37.1,21.9c0,1.6-0.9,3-2.1,3.7c-1.3-0.7-2.1-2.1-2.1-3.7s0.9-3,2.1-3.7C36.3,18.9,37.1,20.3,37.1,21.9z"/>
			<path class="st1" d="M35,25.6c-1.3-0.7-2.1-2.1-2.1-3.7s0.9-3,2.1-3.7"/>
		</g>
		<g>
			<path class="st1" d="M23.1,23.2c1.4-0.4,3,0,4.1,1.1s1.5,2.7,1.1,4.1"/>
			<path class="st1" d="M23.1,23.2c-0.4,1.4,0,3,1.1,4.1s2.7,1.5,4.1,1.1"/>
		</g>
		<g>
			<path class="st1" d="M18.1,35.1c0.7-1.3,2.1-2.1,3.7-2.1s3,0.9,3.7,2.1"/>
			<path class="st1" d="M18.1,35.1c0.7,1.3,2.1,2.1,3.7,2.1s3-0.9,3.7-2.1"/>
		</g>
		<g>
			<path class="st1" d="M20.8,20.9c0.4-1.4,0-3-1.1-4.1s-2.7-1.5-4.1-1.1"/>
			<path class="st1" d="M15.5,15.7c-0.4,1.4,0,3,1.1,4.1c1.1,1.1,2.7,1.5,4.1,1.1"/>
		</g>
		<g>
			<path class="st1" d="M12.5,25.9L12.5,25.9c1.2-0.9,2.8-1.2,4.2-0.6c1.5,0.6,2.4,1.9,2.6,3.4"/>
			<path class="st1" d="M12.5,25.9c0.2,1.5,1.1,2.8,2.6,3.4s3.1,0.3,4.2-0.6"/>
		</g>
		<g>
			<path class="st1" d="M28.3,41.9c-1.4-0.4-3,0-4.1,1.1s-1.5,2.7-1.1,4.1l0,0"/>
			<path class="st1" d="M28.3,41.9c0.4,1.4,0,3-1.1,4.1s-2.7,1.5-4.1,1.1l0,0"/>
		</g>
		<g>
			<path class="st1" d="M41.7,28.4c-0.4-1.4,0-3,1.1-4.1s2.7-1.5,4.1-1.1"/>
			<path class="st1" d="M47,23.2c0.4,1.4,0,3-1.1,4.1s-2.7,1.5-4.1,1.1"/>
		</g>
		<g>
			<path class="st1" d="M44.5,35.1c0.7-1.3,2.1-2.1,3.7-2.1c1.6,0,3,0.9,3.7,2.1"/>
			<path class="st1" d="M44.5,35.1c0.7,1.3,2.1,2.1,3.7,2.1c1.6,0,3-0.9,3.7-2.1"/>
		</g>
		<g>
			<path class="st1" d="M47,47.1c0.4-1.4,0-3-1.1-4.1s-2.7-1.5-4.1-1.1"/>
			<path class="st1" d="M41.7,41.9c-0.4,1.4,0,3,1.1,4.1s2.7,1.5,4.1,1.1"/>
		</g>
		<g>
			<path class="st1" d="M44.3,12.7c-1.5,0.2-2.8,1.1-3.4,2.6c-0.6,1.5-0.3,3.1,0.6,4.2"/>
			<path class="st1" d="M44.3,12.7L44.3,12.7c0.9,1.2,1.2,2.8,0.6,4.2c-0.6,1.5-1.9,2.4-3.4,2.6"/>
		</g>
		<g>
			<path class="st1" d="M57.5,25.8L57.5,25.8c-1.2-0.9-2.8-1.2-4.2-0.6c-1.5,0.6-2.4,1.9-2.6,3.4"/>
			<path class="st1" d="M50.6,28.6c1.2,0.9,2.8,1.2,4.2,0.6c1.5-0.6,2.4-1.9,2.6-3.4"/>
		</g>
		<g>
			<path class="st1" d="M54.4,15.7c-1.4-0.4-3,0-4.1,1.1s-1.5,2.7-1.1,4.1"/>
			<path class="st1" d="M54.4,15.7c0.4,1.4,0,3-1.1,4.1c-1.1,1.1-2.7,1.5-4.1,1.1"/>
		</g>
		<path class="st1" d="M40.7,60.7c0.3,0.6,0.6,1.1,1,1.7c-1.3-0.6-2.8-1-4.3-1.2C36.6,61,35.8,61,35,61s-1.6,0.1-2.4,0.2l0,0
			c-1.5,0.2-3,0.6-4.3,1.2c0.4-0.6,0.7-1.1,1-1.7c0.5-1,1-2,1.4-3.1c0.8-2,1.4-4.2,1.7-6.5c0-0.2,0.1-0.4,0.1-0.6c0.1-1,0.2-2,0.2-3
			c0-0.9,0-1.7-0.1-2.6c0-0.3-0.1-0.6-0.1-0.8c0-0.1,0-0.2,0-0.3c0-0.2-0.1-0.4-0.1-0.6c-0.1-0.5-0.2-1-0.3-1.4l0,0
			c-0.1-0.7-0.3-1.3-0.5-2c-0.1-0.5-0.3-1-0.5-1.5c-0.1-0.2-0.2-0.5-0.3-0.7c-0.1-0.3-0.3-0.6-0.4-1c-0.2-0.5-0.4-0.9-0.6-1.3
			c-0.2-0.3-0.4-0.7-0.5-1c-0.1-0.2-0.3-0.5-0.4-0.7c-0.2-0.3-0.4-0.7-0.6-1c0.8,0.8,1.9,1.4,3.1,1.4c1.6,0,2.9-0.8,3.7-2.1
			c0.7,1.3,2.1,2.1,3.7,2.1c1.2,0,2.4-0.5,3.1-1.4c-0.2,0.3-0.4,0.7-0.6,1c-0.2,0.3-0.3,0.5-0.4,0.8c-0.2,0.3-0.3,0.6-0.5,1
			s-0.4,0.9-0.6,1.4c-0.1,0.3-0.3,0.7-0.4,1c-0.1,0.2-0.2,0.5-0.3,0.7c-0.2,0.5-0.4,1.1-0.5,1.6c-0.2,0.6-0.3,1.3-0.5,1.9l0,0
			c-0.1,0.5-0.2,0.9-0.3,1.4l0,0c0,0.2-0.1,0.4-0.1,0.7c0,0.1,0,0.2,0,0.3c0,0.3-0.1,0.5-0.1,0.8c-0.1,0.9-0.1,1.7-0.1,2.6
			c0,1,0.1,2,0.2,3c0,0.2,0,0.3,0.1,0.5c0.3,2.3,0.9,4.4,1.7,6.5C39.6,58.6,40.1,59.6,40.7,60.7z"/>
		<line class="st1" x1="41.8" y1="33.7" x2="41.8" y2="33.7"/>
		<line class="st1" x1="28.2" y1="33.7" x2="28.2" y2="33.7"/>
	</g>
</g>
</svg>
