<svg xmlns="http://www.w3.org/2000/svg" viewBox="0 0 1053.65 319.31"><defs><style>.cls-1{fill:#0046bb;}</style></defs><g id="Layer_2" data-name="Layer 2"><g id="Layer_1-2" data-name="Layer 1"><line class="cls-1" x1="463.97" y1="152.03" x2="463.97" y2="152.02"/><path class="cls-1" d="M543.34,152h0"/><path class="cls-1" d="M503.86,43.12a24.88,24.88,0,0,0,0-43.12"/><path class="cls-1" d="M503.86,43.12a24.87,24.87,0,0,1,0-43.12"/><path class="cls-1" d="M466,69.35h0a24.88,24.88,0,0,0-16.51-39.84"/><path class="cls-1" d="M449.53,29.51A24.87,24.87,0,0,0,466,69.35"/><path class="cls-1" d="M516.12,83.2a24.84,24.84,0,0,1-12.46,21.55,24.87,24.87,0,0,1,0-43.12A24.86,24.86,0,0,1,516.12,83.2Z"/><path class="cls-1" d="M503.66,104.75a24.87,24.87,0,0,1,0-43.12"/><path class="cls-1" d="M434,90.54A24.88,24.88,0,0,1,464.52,121"/><path class="cls-1" d="M434,90.54A24.87,24.87,0,0,0,464.52,121"/><path class="cls-1" d="M405.18,160a24.86,24.86,0,0,1,43.11,0"/><path class="cls-1" d="M405.18,160a24.86,24.86,0,0,0,43.11,0"/><path class="cls-1" d="M420.69,77.61A24.88,24.88,0,0,0,390.2,47.12"/><path class="cls-1" d="M390.2,47.12a24.88,24.88,0,0,0,30.49,30.49"/><path class="cls-1" d="M372.6,106.3h0a24.88,24.88,0,0,1,39.84,16.5"/><path class="cls-1" d="M372.6,106.3a24.88,24.88,0,0,0,39.84,16.5"/><path class="cls-1" d="M464.52,199.73A24.88,24.88,0,0,0,434,230.22h0"/><path class="cls-1" d="M464.52,199.73A24.88,24.88,0,0,1,434,230.22h0"/><path class="cls-1" d="M543.05,121a24.87,24.87,0,0,1,30.49-30.49"/><path class="cls-1" d="M573.54,90.54A24.88,24.88,0,0,1,543.05,121"/><path class="cls-1" d="M559.27,160a24.88,24.88,0,0,1,43.13,0"/><path class="cls-1" d="M559.27,160a24.89,24.89,0,0,0,43.13,0"/><path class="cls-1" d="M573.54,230.21a24.88,24.88,0,0,0-30.49-30.49"/><path class="cls-1" d="M543.05,199.72a24.88,24.88,0,0,0,30.49,30.49"/><path class="cls-1" d="M557.78,29.51a24.88,24.88,0,0,0-16.51,39.84"/><path class="cls-1" d="M557.77,29.51h0a24.87,24.87,0,0,1-16.51,39.84"/><path class="cls-1" d="M634.83,105.84h0A24.88,24.88,0,0,0,595,122.34"/><path class="cls-1" d="M595,122.34a24.88,24.88,0,0,0,39.84-16.5"/><path class="cls-1" d="M617.11,47.12a24.88,24.88,0,0,0-30.49,30.49"/><path class="cls-1" d="M617.11,47.12a24.88,24.88,0,0,1-30.49,30.49"/><path class="cls-1" d="M536.73,309.36q2.76,5,5.86,9.82a98,98,0,0,0-25.06-7,100.26,100.26,0,0,0-27.61,0h0a97.88,97.88,0,0,0-25.27,7.11q3.15-4.86,5.94-9.95a159.12,159.12,0,0,0,18.25-55.57c.17-1.24.32-2.49.46-3.74a161.13,161.13,0,0,0,1-17.67q0-7.55-.68-14.92c-.16-1.66-.33-3.3-.54-4.94-.07-.6-.14-1.19-.23-1.79-.15-1.17-.33-2.34-.51-3.5-.44-2.83-1-5.62-1.56-8.4h0q-1.26-5.94-3-11.71-1.31-4.45-2.86-8.79c-.52-1.44-1.05-2.86-1.6-4.28-.74-1.89-1.52-3.76-2.32-5.62q-1.74-4-3.69-7.85-1.5-3-3.15-6-1.18-2.15-2.45-4.26-1.8-3-3.73-6a24.87,24.87,0,0,0,39.69-4.18,24.87,24.87,0,0,0,39.67,4.2c-1.26,1.91-2.48,3.86-3.66,5.83q-1.3,2.19-2.54,4.42-1.56,2.77-3,5.61-2,3.88-3.72,7.91c-.84,1.9-1.63,3.82-2.39,5.76-.55,1.41-1.08,2.82-1.59,4.24q-1.65,4.59-3,9.29-1.62,5.55-2.84,11.27h0q-.87,4.08-1.53,8.22h0c-.21,1.31-.4,2.62-.57,3.94q-.12.8-.21,1.59c-.19,1.51-.36,3-.49,4.54q-.74,7.56-.73,15.32a163.65,163.65,0,0,0,1,17.67c.1.95.22,1.9.34,2.84a159.08,159.08,0,0,0,18.37,56.47Z"/><path class="cls-1" d="M543.34,152h0"/><line class="cls-1" x1="463.97" y1="152.03" x2="463.97" y2="152.02"/><path class="cls-1" d="M94.38,316.24H65.93L0,148.9H31.79L80.32,271.06,128.51,148.9h31.8Z"/><path class="cls-1" d="M194.94,120.29a15.35,15.35,0,1,1,10.88,4.52A14.84,14.84,0,0,1,194.94,120.29Zm-2.84,196V148.9h28.11V316.24Z"/><path class="cls-1" d="M309.39,310.55a79.82,79.82,0,0,1-25.26-20.08v25.77H254.68V94h29.45v79q7.35-10.37,21.92-18.41t33.63-8a84.33,84.33,0,0,1,59.91,25.1,88.35,88.35,0,0,1,18.24,27.61,86.6,86.6,0,0,1,0,65.93,88.23,88.23,0,0,1-18.24,27.61,84.33,84.33,0,0,1-59.91,25.1A66.28,66.28,0,0,1,309.39,310.55Zm9-129.35a50.5,50.5,0,0,0-17.57,11.88A59,59,0,0,0,289.15,211a53.53,53.53,0,0,0-4.35,21.26q0,22.42,16.06,39.15a52.32,52.32,0,0,0,17.57,12.05,53.65,53.65,0,0,0,21.25,4.35,53.43,53.43,0,0,0,38.49-16.4q16.06-16.72,16.06-39.15A53.7,53.7,0,0,0,389.88,211a59.41,59.41,0,0,0-11.71-17.9,50.94,50.94,0,0,0-17.4-11.88A54.32,54.32,0,0,0,339.68,177,55.48,55.48,0,0,0,318.43,181.2Z"/><path class="cls-1" d="M668.44,181q-8-3.67-14.39-3.68-13.38,0-22.09,9.37a32.84,32.84,0,0,0-9.37,23.09V316.24H593.81V209.81a62.38,62.38,0,0,1,9.2-33.13,63.26,63.26,0,0,1,25.27-23.43,59.62,59.62,0,0,1,25.77-5.69,56.26,56.26,0,0,1,21.09,4q10,4,21.08,13Z"/><path class="cls-1" d="M725,245.29q0,8,5.86,16.73a63.45,63.45,0,0,0,13.55,14.73,51.55,51.55,0,0,0,32.8,11q29.79,0,48.53-28.78l25.43,15.06q-13,21.09-32.13,32.46a80.09,80.09,0,0,1-41.83,11.38,82.3,82.3,0,0,1-32.46-6.52A85.11,85.11,0,0,1,699.4,266a82.36,82.36,0,0,1-6.53-32.47,84.83,84.83,0,0,1,24.77-59.9,78.46,78.46,0,0,1,26.94-18.07,86.88,86.88,0,0,1,65.26,0,78.46,78.46,0,0,1,26.94,18.07q24.76,25.44,24.77,58.9a85.78,85.78,0,0,1-1,12.72Zm26.44-62.59a52.16,52.16,0,0,0-19.24,15.9,34.94,34.94,0,0,0-7.2,20.92H829.42a34.94,34.94,0,0,0-7.2-20.92A52.24,52.24,0,0,0,803,182.7a58.17,58.17,0,0,0-51.54,0Z"/><path class="cls-1" d="M917.1,245.29q0,8,5.86,16.73a63.27,63.27,0,0,0,13.56,14.73,51.53,51.53,0,0,0,32.79,11q29.79,0,48.53-28.78l25.43,15.06q-13.05,21.09-32.12,32.46a80.15,80.15,0,0,1-41.84,11.38,82.3,82.3,0,0,1-32.46-6.52A85.11,85.11,0,0,1,891.5,266,82.35,82.35,0,0,1,885,233.57a84.77,84.77,0,0,1,24.76-59.9,78.46,78.46,0,0,1,26.94-18.07,86.88,86.88,0,0,1,65.26,0,78.37,78.37,0,0,1,26.94,18.07q24.76,25.44,24.77,58.9a87.08,87.08,0,0,1-1,12.72Zm26.44-62.59a52.16,52.16,0,0,0-19.24,15.9,34.94,34.94,0,0,0-7.2,20.92h104.42a35,35,0,0,0-7.19-20.92,52.27,52.27,0,0,0-19.25-15.9,58.17,58.17,0,0,0-51.54,0Z"/></g></g></svg>